<svg xmlns="http://www.w3.org/2000/svg" xmlns:xlink="http://www.w3.org/1999/xlink" data-name="Layer 1" viewBox="0 0 823.74 566.7"><defs><linearGradient id="e" x1="382.12" x2="382.12" y1="410.38" y2="563.86" gradientUnits="userSpaceOnUse"><stop offset="0" stop-opacity=".4"/><stop offset="1" stop-color="#fff" stop-opacity="0"/></linearGradient><linearGradient id="a" x1="170.88" x2="679.23" y1="-23.34" y2="550.13" gradientUnits="userSpaceOnUse"><stop offset=".02" stop-color="#fff" stop-opacity="0"/><stop offset="1" stop-color="#fff"/></linearGradient><linearGradient id="f" x1="349.37" x2="367.46" y1="631.94" y2="-155" xlink:href="#a"/><linearGradient id="g" x1="229.96" x2="248.05" y1="716.09" y2="-70.85" xlink:href="#a"/><linearGradient id="h" x1="455.61" x2="473.7" y1="698.25" y2="-88.69" xlink:href="#a"/><linearGradient id="i" x1="455.23" x2="473.32" y1="784.74" y2="-2.2" xlink:href="#a"/><linearGradient id="j" x1="461.1" x2="479.19" y1="587.79" y2="-199.14" xlink:href="#a"/><linearGradient id="b" x1="536.01" x2="332.05" y1="592.9" y2="45.52" gradientUnits="userSpaceOnUse"><stop offset=".58"/><stop offset=".78" stop-opacity=".16"/></linearGradient><linearGradient id="k" x1="370.59" x2="166.63" y1="654.54" y2="107.15" xlink:href="#b"/><linearGradient id="l" x1="613.77" x2="409.81" y1="563.93" y2="16.54" xlink:href="#b"/><linearGradient id="c" x1="449.44" x2="467.16" y1="170.77" y2="170.77" gradientUnits="userSpaceOnUse"><stop offset="0" stop-color="#ecc4d7"/><stop offset=".42" stop-color="#efd4d1"/><stop offset="1" stop-color="#f2eac9"/></linearGradient><linearGradient id="m" x1="433.56" x2="441.9" y1="192.47" y2="192.47" xlink:href="#c"/><linearGradient id="n" x1="437.46" x2="454.04" y1="182.41" y2="188.75" gradientUnits="userSpaceOnUse"><stop offset="0" stop-color="#68e1fd"/><stop offset=".01" stop-color="#67ddf9"/><stop offset=".12" stop-color="#5cb3ce"/><stop offset=".24" stop-color="#538ea9"/><stop offset=".37" stop-color="#4c718b"/><stop offset=".5" stop-color="#465a73"/><stop offset=".63" stop-color="#424a63"/><stop offset=".79" stop-color="#404059"/><stop offset=".99" stop-color="#3f3d56"/></linearGradient><linearGradient id="d" x1="421.12" x2="472.68" y1="221.83" y2="218.96" gradientUnits="userSpaceOnUse"><stop offset=".36" stop-color="#00272e"/><stop offset="1" stop-color="#69b9eb" stop-opacity="0"/></linearGradient><linearGradient id="o" x1="264.4" x2="284.66" y1="440.44" y2="440.44" xlink:href="#c"/><linearGradient id="p" x1="297.8" x2="306.13" y1="460.74" y2="460.74" xlink:href="#c"/><linearGradient id="q" x1="308.7" x2="273.72" y1="493.61" y2="489.24" xlink:href="#d"/><linearGradient id="r" x1="290.96" x2="299.09" y1="468.46" y2="468.46" xlink:href="#d"/></defs><path fill="#68e1fd" d="M735.4,130.19c7.87,44.81-37.12,89-23.22,132.28,8,25,32,40.59,52.69,56.67,32.88,25.5,63.22,62.55,58.68,103.91-4.91,44.61-47.39,76.15-89.61,91.36-158.37,57-700.71,157.13-732.82-95.62C-5,370.48,22.75,322.61,53.89,285.17,78.66,255.4,216.63,121.6,267.06,96.62,491.7-14.69,712.22-1.71,735.4,130.19Z" opacity=".18" transform="translate(-.26 -16.07)"/><path fill="#000405" d="M460.22,65.5s297-2.59,247.18,118.9c-38.59,94,5.51,100.89,19.3,146.35S724.48,428,691.22,452.54s-166.13,20.2-166.13,56.57-37,23.07-37,23.07H255.19L297.73,403.9Z" opacity=".05" transform="translate(-.26 -16.07)"/><rect width="250.01" height="14.25" x="254.93" y="501.86" fill="#68e1fd"/><rect width="169.28" height="114.04" x="297.47" y="387.82" fill="#68e1fd"/><rect width="169.28" height="114.04" x="297.47" y="387.82" fill="#68e1fd"/><rect width="169.28" height="114.04" x="297.47" y="387.82" fill="url(#e)" style="isolation:isolate"/><path fill="#68e1fd" d="M691.22,81.25V379.91A65.16,65.16,0,0,1,626,445.07h-496a65.16,65.16,0,0,1-65.16-65.16V81.25a65.17,65.17,0,0,1,65.16-65.18H626A65.18,65.18,0,0,1,691.22,81.25Z" transform="translate(-.26 -16.07)"/><path fill="url(#a)" d="M691.22,81.25v283H66.49c-.53,0-1,0-1.58,0v-283a65.17,65.17,0,0,1,65.16-65.18H626A65.18,65.18,0,0,1,691.22,81.25Z" transform="translate(-.26 -16.07)" style="isolation:isolate"/><rect width="442.54" height="87.27" x="140.27" y="59.05" fill="url(#f)" style="isolation:isolate"/><rect width="201.02" height="175.77" x="140.27" y="157.46" fill="url(#g)" style="isolation:isolate"/><rect width="223.75" height="58.7" x="355.49" y="157.46" fill="url(#h)" style="isolation:isolate"/><rect width="223.75" height="58.7" x="355.49" y="227.3" fill="url(#i)" style="isolation:isolate"/><rect width="223.75" height="36.09" x="355.49" y="297.14" fill="url(#j)" style="isolation:isolate"/><path fill="#68e1fd" d="M483.22 559.44h9.55L463.38 189.21l-8.07 2.17 1.83 24.19-29 1.83-2.23-28.19-8.07 2.17 27.92 368.06h9.55l-3.33-42 28-1.72-.42-6.63-28.11 1.73-2.39-30L477.8 479l-.41-6.63-28.85 1.78-2.38-30.05 28.18-1.79zM428.67 224l29-1.85 2.28 30.06-28.87 1.83zm2.91 36.66l28.85-1.85L462.71 289 434 290.8zm2.93 36.73l28.7-1.84 2.44 32.09L437 329.38zm3.06 38.6l28.58-1.71 2.12 28-28.47 1.81zm2.75 34.72l28.45-1.81L471.05 399l-28.34 1.79zm5.31 66.77l-2.4-30.1 28.33-1.81 2.28 30.12zM240.08 212.72V189.21h-5.89v23.51H205.54V220h28.65V545.49h5.89V257.9L275 220h26.74v-7.32zm0 34.89V220h26.56zM531 212.72V189.21h-5.89v23.51H468.52V220h24.57l32 34.7V545.49H531V220h33.74v-7.32zm-5.89 31.87L501.44 220h23.65z" transform="translate(-.26 -16.07)"/><g opacity=".61"><path fill="url(#b)" d="M483.22,559.44h9.55L463.38,189.21l-8.07,2.17,1.83,24.19-29,1.83-2.23-28.19-8.07,2.17,27.92,368.06h9.55l-3.33-42,28-1.72-.42-6.63-28.11,1.73-2.39-30L477.8,479l-.41-6.63-28.85,1.78-2.38-30.05,28.18-1.79ZM428.67,224l29-1.85,2.28,30.06-28.87,1.83Zm2.91,36.66,28.85-1.85L462.71,289,434,290.8Zm2.93,36.73,28.7-1.84,2.44,32.09L437,329.38Zm3.06,38.6,28.58-1.71,2.12,28-28.47,1.81Zm2.75,34.72,28.45-1.81L471.05,399l-28.34,1.79Zm5.31,66.77-2.4-30.1,28.33-1.81,2.28,30.12Z" transform="translate(-.26 -16.07)"/><path fill="url(#k)" d="M240.08,212.72V189.21h-5.89v23.51H205.54V220h28.65V545.49h5.89V257.9L275,220h26.74v-7.32Zm0,34.89V220h26.56Z" transform="translate(-.26 -16.07)"/><path fill="url(#l)" d="M531,212.72V189.21h-5.89v23.51H468.52V220h24.57l32,34.7V545.49H531V220h33.74v-7.32Zm-5.89,31.87L501.44,220h23.65Z" transform="translate(-.26 -16.07)"/></g><path fill="#68e1fd" d="M469.4,287.64l-.68,6.1H454.63s-1.15-3.52,1.42-4.4a24,24,0,0,1,4.34-1.09Z" transform="translate(-.26 -16.07)"/><path fill="url(#c)" d="M449.75,161.3a45.81,45.81,0,0,0,1,16.33,7.21,7.21,0,0,0,6.77,2.71v4.06h6.78l2.84-20.32S456.53,150.53,449.75,161.3Z" transform="translate(-.26 -16.07)"/><path fill="#333" d="M454.5,163.33a20.15,20.15,0,0,1,2,6.78s1.35-2.71,2-1.36-1.35,4.07-1.35,4.07l2,3.38H466s3.39-14.83,1.49-16.87-3.18-2-3.18-2,0-2-4.07-2-9.48,0-11.51,3.39-2.71,2-2.71,2,1.15,2.51,2.91,1.9C449.35,162.52,453.82,161.3,454.5,163.33Z" transform="translate(-.26 -16.07)"/><path fill="#68e1fd" d="M457.54,184.4h11.39s4.81,1,5.48,12.53a227.52,227.52,0,0,1,0,23.65v18.9l-5.48-1.83-20.33,4.54-2-27.71A14.65,14.65,0,0,1,436.14,208a16.83,16.83,0,0,1-1.76-15.24l14.15,7.45.75-4a17,17,0,0,1,6.77-10.78Z" transform="translate(-.26 -16.07)"/><polygon fill="#fcfdff" points="436.01 172.94 432.63 162.1 446.11 160.06 450.65 174.83 448.14 183.71 440.08 179.64 436.01 172.94"/><path fill="url(#m)" d="M433.56,195.1a10.67,10.67,0,0,1,2.71-6.09l.68.67h4.27l.68,2.65-1.56,2.23A5.88,5.88,0,0,1,433.56,195.1Z" transform="translate(-.26 -16.07)"/><polygon fill="url(#n)" points="440.08 179.64 443.4 188.45 448.14 183.71 440.08 179.64"/><path fill="url(#d)" d="M446.37,214s10.84-4.07,10.84-10.84l2.72,31.11L448.4,237Z" opacity=".61" transform="translate(-.26 -16.07)"/><polygon fill="#333" points="448.14 220.9 446.11 254.64 448.82 272.25 456.95 272.25 458.3 243.19 463.04 230.99 459.66 272.25 469.14 272.93 473.81 218.19 468.46 216.16 448.14 220.9"/><path fill="#68e1fd" d="M456.8 288.32v6.78L442.51 290s0-3.73 2.77-3.73a23.09 23.09 0 014.47.41zM270.3 555.92L271 562h14.1s1.15-3.52-1.43-4.4a23.05 23.05 0 00-4.33-1.08z" transform="translate(-.26 -16.07)"/><path fill="url(#o)" d="M280.05,428.28a46,46,0,0,1,4.61,15.59c-.81,3.86-5.56,4.74-5.56,4.74l1.29,3.86-6.77,2.37-9.22-18.29S270.16,420.22,280.05,428.28Z" transform="translate(-.26 -16.07)"/><path fill="#333" d="M276.19,431.74a19.73,19.73,0,0,0,0,6.77s-2.17-2.1-2.37-.61,2.57,3.39,2.57,3.39l-.81,3.86-6.16,2.1s-8-13-6.78-15.51,1.83-2.78,1.83-2.78-.68-1.9,3.18-3.25,9-3,12-.47,3.18,1,3.18,1,0,2.71-2.17,2.78C280.87,429.3,276.19,429.57,276.19,431.74Z" transform="translate(-.26 -16.07)"/><path fill="#68e1fd" d="M282.49,452.54H271.11s-4.81,1-5.49,12.53a227.33,227.33,0,0,0,0,23.64v18.9l5.49-1.83,20.32,4.54,2-27.7a14.78,14.78,0,0,0,10.23-6.91,16.91,16.91,0,0,0,1.76-15.25l-14.16,7.45-.75-4a17,17,0,0,0-6.77-10.77Z" transform="translate(-.26 -16.07)"/><polygon fill="#fcfdff" points="303.17 441.14 306.55 430.37 293 428.34 288.53 443.11 290.97 451.98 299.1 447.92 303.17 441.14"/><path fill="url(#p)" d="M306.13,463.38a10.57,10.57,0,0,0-2.71-6.1l-.67.68h-4.27l-.68,2.64,1.56,2.23A5.88,5.88,0,0,0,306.13,463.38Z" transform="translate(-.26 -16.07)"/><path fill="url(#q)" d="M293.26,482.48s-10.84-4.06-10.84-10.84l.88,36.72,7.93,1.76Z" opacity=".61" transform="translate(-.26 -16.07)"/><polygon fill="#333" points="290.97 489.17 293 522.91 290.36 540.52 282.23 540.52 280.88 511.46 276.13 499.26 279.52 540.52 270.04 541.2 265.3 486.46 270.71 484.43 290.97 489.17"/><path fill="#68e1fd" d="M282.9,556.59v4.75l14.83-.68s-.67-4.74-3.38-4.74a8.28,8.28,0,0,1-4.2-.95Z" transform="translate(-.26 -16.07)"/><path fill="#fff" d="M522.51,162H487.89a17.82,17.82,0,0,1-17.81-17.82v-7.59a17.81,17.81,0,0,1,17.81-17.81h34.62a17.81,17.81,0,0,1,17.82,17.81v7.59A17.82,17.82,0,0,1,522.51,162Z" transform="translate(-.26 -16.07)"/><path fill="#fff" d="M474.07,171.39s14.16.68,17.55-9.48h10.5S495.08,174.78,474.07,171.39Z" transform="translate(-.26 -16.07)"/><path fill="#020202" d="M482.07 125.46h47.56a1.22 1.22 0 011.22 1.22v.95a1.22 1.22 0 01-1.22 1.22H482.07a1.22 1.22 0 01-1.22-1.22v-.95A1.22 1.22 0 01482.07 125.46zM482.07 133.59h47.56a1.22 1.22 0 011.22 1.22v.95a1.22 1.22 0 01-1.22 1.22H482.07a1.22 1.22 0 01-1.22-1.22v-.95A1.22 1.22 0 01482.07 133.59zM482.07 141.65h47.56a1.22 1.22 0 011.22 1.22v.95a1.22 1.22 0 01-1.22 1.22H482.07a1.22 1.22 0 01-1.22-1.22v-.95A1.22 1.22 0 01482.07 141.65zM482.07 149.78H508a1.22 1.22 0 011.21 1.22V152a1.22 1.22 0 01-1.21 1.22H482.07a1.22 1.22 0 01-1.22-1.22V151A1.22 1.22 0 01482.07 149.78z" opacity=".15" transform="translate(-.26 -16.07)" style="isolation:isolate"/><path fill="#fff" d="M206.89 432.21h34.62a17.8 17.8 0 0017.74-17.48v-7.92A17.81 17.81 0 00241.44 389H206.89a17.82 17.82 0 00-17.82 17.82v7.92A17.82 17.82 0 00206.89 432.21zM255.19 441.83s-14.16.68-17.55-9.48H227.21S234 445.08 255.19 441.83z" transform="translate(-.26 -16.07)"/><path fill="#020202" d="M247.2 399.09H199.64a1.22 1.22 0 01-1.22-1.22v-.95a1.22 1.22 0 011.22-1.22H247.2a1.22 1.22 0 011.22 1.22v.95A1.22 1.22 0 01247.2 399.09zM247.2 407.28H199.64a1.22 1.22 0 01-1.22-1.22v-.95a1.22 1.22 0 011.22-1.21H247.2a1.22 1.22 0 011.22 1.21v.95A1.22 1.22 0 01247.2 407.28zM247.2 415.34H199.64a1.22 1.22 0 01-1.22-1.21v-.95a1.22 1.22 0 011.22-1.22H247.2a1.22 1.22 0 011.22 1.22v.95A1.22 1.22 0 01247.2 415.34zM247.2 423.47H221.25a1.22 1.22 0 01-1.22-1.22v-.94a1.22 1.22 0 011.22-1.22H247.2a1.22 1.22 0 011.22 1.22v.94A1.22 1.22 0 01247.2 423.47z" opacity=".15" transform="translate(-.26 -16.07)" style="isolation:isolate"/><path fill="url(#r)" d="M299.09,464.66s-2,8.81-4.74,7.46a6.76,6.76,0,0,1-3.39-4.07Z" opacity=".61" transform="translate(-.26 -16.07)"/></svg>