<svg xmlns="http://www.w3.org/2000/svg" data-name="Layer 1" viewBox="0 0 700 550"><path fill="#d5efc8" d="M428.20136,465.726c16.25-5.08,30.83-10.27,48.37-20.12,18.09-10.16,98.45-58.51,108.9-142.19a159.61541,159.61541,0,0,0-6.66-68.16c-3.23-9.47-9.93-28.49-26.84-47.3-20.7-23.04-44.32-31.97-58.17-37.02-29.14-10.63-53.58-10.07-65.22-9.69-12.56.41-34.73,1.33-59.93,12.34-16.44,7.18-26.66,15.37-41.72,27.61-23.86,19.41-27,27.49-68.74,67.57-11.46,11-20.88,19.67-35.26,28.21-9.97,5.92-18.03,9.23-32.9,15.27-36.55,14.85-46.95657,17.85676-58.91657,26.21676-23.26,16.27-21.75343,34.01324-22.75343,37.83324a75.12694,75.12694,0,0,0-1.77,29.97c3.05,20.07,13.86,33.19,20.57,41.13a113.09822,113.09822,0,0,0,32.9,26.44,210.24676,210.24676,0,0,0,26.96,11.89Z"/><path fill="#d5efc8" d="M479.79262,451.5402l-.49024-.8711c23.90088-13.42676,102.69727-63.76074,113.17823-147.73633a166.30019,166.30019,0,0,0-6.91358-70.77246c-2.97705-8.73144-9.94873-29.17871-27.84814-49.0957C535.799,158.675,510.77357,149.547,497.32875,144.64273a174.09278,174.09278,0,0,0-67.74756-10.06835c-12.42383.40429-35.55029,1.15625-62.24267,12.81054l-.4004-.916c26.86866-11.73145,51.00928-12.51661,62.61084-12.89453a175.06526,175.06526,0,0,1,68.12256,10.1289c13.52637,4.9336,38.70459,14.11719,60.79151,38.69336,18.03564,20.06836,25.05371,40.65137,28.05029,49.44141a167.3379,167.3379,0,0,1,6.95947,71.21777C582.93373,387.49723,503.796,438.05582,479.79262,451.5402Z"/><rect width="274.312" height="208.183" x="156.368" y="84.274" fill="#e5e1e5" rx="12.473"/><rect width="274.312" height="1.135" x="156.368" y="109.015" fill="#a2aee6"/><path fill="#ffba55" d="M171.88,103.25545c6.56646,0,6.57733-10.205,0-10.205-6.56647,0-6.57734,10.20505,0,10.20505Z"/><path fill="#f73c4f" d="M188.88838,103.25545c6.56646,0,6.57734-10.205,0-10.205-6.56646,0-6.57734,10.20505,0,10.20505Z"/><path fill="#4f66d0" d="M204.7629,103.25545c6.56646,0,6.57734-10.205,0-10.205-6.56646,0-6.57734,10.20505,0,10.20505Z"/><rect width="192.6" height="1.135" x="220.44" y="202.404" fill="#a2aee6"/><rect width="192.6" height="1.135" x="220.44" y="236.694" fill="#a2aee6"/><rect width="192.6" height="1.135" x="220.44" y="271.435" fill="#a2aee6"/><rect width="192.6" height="1.135" x="220.44" y="132.097" fill="#a2aee6"/><rect width="192.6" height="1.135" x="220.44" y="166.838" fill="#a2aee6"/><rect width="15.12" height="1" x="405.48" y="97.653" fill="#a2aee6"/><rect width="1" height="15.12" x="412.54" y="90.593" fill="#a2aee6"/><polygon fill="#4f66d0" points="185.882 137.598 179.162 131.758 180.473 130.248 185.786 134.865 196.605 124.047 198.019 125.461 185.882 137.598"/><polygon fill="#4f66d0" points="185.882 209.509 179.162 203.669 180.473 202.159 185.786 206.777 196.605 195.958 198.019 197.372 185.882 209.509"/><polygon fill="#4f66d0" points="185.882 173.078 179.161 167.237 180.474 165.728 185.786 170.346 196.605 159.528 198.019 160.942 185.882 173.078"/><path fill="#f73c4f" d="M188.56459,244.52262a8.37989,8.37989,0,1,1,8.37988-8.37989A8.38927,8.38927,0,0,1,188.56459,244.52262Zm0-14.75977a6.37989,6.37989,0,1,0,6.37988,6.37988A6.3876,6.3876,0,0,0,188.56459,229.76285Z"/><path fill="#ffba55" d="M188.56459,278.00309a8.38038,8.38038,0,1,1,8.37988-8.38086A8.3901,8.3901,0,0,1,188.56459,278.00309Zm0-14.76075a6.38038,6.38038,0,1,0,6.37988,6.37989A6.3876,6.3876,0,0,0,188.56459,263.24234Z"/><path fill="#ffba55" d="M195.94443,269.6227a7.39082,7.39082,0,0,1-7.38,7.37978c-1.39172.00586-1.00354-14.75293,0-14.75976A7.36233,7.36233,0,0,1,195.94443,269.6227Z"/><path fill="#1e1d22" d="M454.151,148.30374s-2.57763-5.97971,11.97962-4.4034,13.647,6.77882,10.61276,28.89475C476.74334,172.79509,454.72975,182.81648,454.151,148.30374Z"/><path fill="#f9977a" d="M457.96322,180.48166l1.54563,15.79481,21.80217,6.0992L477.66763,180.772l-.92429-7.97682s-13.121.349-6.82551-6.94389c2.36018-2.734,2-8.68983-1.84331-5.47618,0,0-5.14687,1.94524-5.5974-2.66774-.45054-4.61272.66684-6.51625.66684-6.51625s-6.28444-.36666-8.993-2.88737l-2.31573,2.83484a5.83708,5.83708,0,0,0-1.23845,4.64545l.17324,1.04745-5.18814,5.30645a1.21277,1.21277,0,0,0-.06965,1.62134c.28427.34422.67053.84076,1.19267,1.55693a4.65305,4.65305,0,0,1,.62893,3.80205l5.70526-.014a7.18093,7.18093,0,0,1-2.20574,3.21134c-1.52256,1.092-3.88447,1.15667-3.88623,1.517C446.93313,176.70416,448.09878,182.39971,457.96322,180.48166Z"/><path fill="#1e1d22" d="M457.42288,157.38344a.70521.70521,0,0,1-.7878-.48777c-.73131-2.36723-4.42986-3.72993-5.79346-4.05492a.7054.7054,0,1,1,.32765-1.37223c.2318.0558,5.69729,1.39792,6.81323,5.01086a.7054.7054,0,0,1-.46557.88185A.69179.69179,0,0,1,457.42288,157.38344Z"/><path fill="#dd765e" d="M465.087,175.50668c-1.972,3.28154-7.12367,4.97486-7.12367,4.97486l.97077,9.92178C461.62981,186.40386,465.087,175.50668,465.087,175.50668Z"/><path fill="#1e1d22" d="M453.03909,159.19472a1.21713,1.21713,0,0,0,0-2.4328,1.21713,1.21713,0,0,0,0,2.4328Z"/><path fill="#f9977a" d="M434.13917,254.09636l-6.78259-5.22337a6.576,6.576,0,0,0-3.32756-1.33091c-2.1201-.22279-5.53023-.68623-7.02233-1.46952-1.44777-.76-2.17854-.10007-1.439,1.35827.4353.85836,1.96763,1.98937,5.98088,3.32712l-3.49211.89367a3.85524,3.85524,0,0,1-3.05823-.50338l-3.84478-2.50144a1.17638,1.17638,0,0,0-1.53132.21653l-.00023.00026a1.1764,1.1764,0,0,0,.21748,1.7349l6.94,4.83323s-.66768,5.723,4.67378,6.963,12.686-.95383,12.686-.95383Z"/><polygon fill="#f73c4f" points="413.078 273.414 436.15 271.95 412.403 238.304 389.849 239.839 413.078 273.414"/><path fill="#f9977a" d="M436.25368 261.81325L424.2494 251.27966s-6.4634-1.98555-10.18485-3.52417a5.27284 5.27284 0 00-6.01127 1.55237c-1.39218 1.667-1.34246 3.34967 2.52969 6 5.79133 3.96388 8.74316 5.42486 10.48756 5.94911.28546.08579 1.18947.42911 2.064.76753a8.96352 8.96352 0 004.00155.57109zM410.55273 201.02035l-7.68249-3.7771a6.57592 6.57592 0 01-2.66409-2.39722c-1.13652-1.80354-3.05886-4.65808-4.42077-5.6506-1.32146-.963-1.05224-1.9102.58279-1.891.96237.01129 2.654.88629 5.62714 3.89563l-.74107-3.52765a3.85525 3.85525 0 00-1.80271-2.5212l-3.94269-2.34408a1.17638 1.17638 0 01-.48228-1.46943l.00013-.00032a1.17639 1.17639 0 011.65248-.57137l7.40206 4.0907s4.8392-3.12739 8.31145 1.1167 4.74892 11.80217 4.74892 11.80217z"/><path fill="#dd765e" d="M420.7697 253.04532a14.86137 14.86137 0 01-2.66992-.68261 22.48212 22.48212 0 01-2.53482-1.04712 18.74685 18.74685 0 01-2.38071-1.38184 9.68611 9.68611 0 01-2.07147-1.83862l4.89151 2.32275A43.698 43.698 0 01420.7697 253.04532zM419.23057 255.25724a15.36371 15.36371 0 01-2.95077-.63086 20.8825 20.8825 0 01-2.81177-1.0896 14.92128 14.92128 0 01-2.60583-1.56226 6.28049 6.28049 0 01-2.01673-2.28027 12.99248 12.99248 0 002.44324 1.62695c.85532.459 1.72067.90479 2.61032 1.31372C415.66093 253.49112 417.46129 254.2775 419.23057 255.25724zM417.30571 256.97037a11.11738 11.11738 0 01-2.48956-.46167 17.09718 17.09718 0 01-2.36066-.88721 11.57677 11.57677 0 01-4.06619-2.981c.7883.33642 1.52408.69311 2.2666 1.04223l2.22375 1.03394C414.35777 255.4213 415.8426 256.10074 417.30571 256.97037zM406.88438 186.87857a3.19839 3.19839 0 01-1.66919-.65039 3.55984 3.55984 0 01-1.134-1.37158 2.02134 2.02134 0 01.95.14453 3.31371 3.31371 0 01.77781.4231A2.90016 2.90016 0 01406.88438 186.87857zM408.59578 186.0358a3.77646 3.77646 0 01-1.5163-.8623 6.36665 6.36665 0 01-.554-.5752c-.18168-.20386-.32035-.41919-.56168-.6687a1.24939 1.24939 0 01.9917.01758 2.53379 2.53379 0 01.79022.48144A2.4947 2.4947 0 01408.59578 186.0358zM410.68645 185.96305a3.38624 3.38624 0 01-.78022-1.00806c-.07122-.15234-.13552-.29248-.19445-.44678a2.84559 2.84559 0 00-.31556-.56787.82257.82257 0 01.83027-.0188 1.32809 1.32809 0 01.56991.5791 1.46972 1.46972 0 01.15482.731A1.21909 1.21909 0 01410.68645 185.96305z"/><path fill="#d87e6a" d="M476.6129,436.82459s3.33815,24.66783,1.542,25.4651-47.18041,4.29421-39.00285-.03318L452.74912,455.95c4.85693-2.2527,8.729-7.28417,8.6819-12.63787l.70041-7.52712Z"/><path fill="#ffba55" d="M488.47519,276.08437l.39842,3.68912a56.75484,56.75484,0,0,1-5.16757,30.45806v16.59669l-2.68077,109.60114a3.57687,3.57687,0,0,1-3.5758,3.48941h-18.806a3.57687,3.57687,0,0,1-3.55447-3.1772l-7.49136-66.62476a209.38369,209.38369,0,0,1-1.18066-30.78849l2.23429-63.244Z"/><path fill="#6c7fd8" d="M418.87669,194.07228c8.91053,4.75382,21.14385,20.20378,21.14385,20.20378l15.42574-14.814,3.46012-8.65031,10.75588-2.93339c2.63475-.71856,6.24172-2.907,7.69964-5.21631a2.57014,2.57014,0,0,0,.30571-1.89005q-.01161-.07595-.02447-.15317l6.48022,13.40336c6.05836,10.07454,7.89591,21.69336,7.02253,33.41676l-2.67072,48.64539s-43.49473,5.34144-41.58707,0l.34663-8.58588-4.73425-.57092-7.63758-1.55578a3,3,0,0,1-2.38542-3.24683l.78957-7.67022a3,3,0,0,1,2.87716-2.69089l8.07317-.28831,4.00608-3.243.42782-13.555-2.36643.40611a19.56381,19.56381,0,0,1-17.59254-6.80463L410.605,204.05717a2.97109,2.97109,0,0,1-.431-2.7902,13.56208,13.56208,0,0,1,5.81913-7.11312A2.94784,2.94784,0,0,1,418.87669,194.07228Z"/><path fill="#065082" d="M480.73946 188.39493c-1.48414.95777-2.97883 1.89575-4.50208 2.781-1.51666.89746-3.03354 1.79443-4.57266 2.65014-3.07483 1.71827-6.17478 3.38965-9.31568 4.9856l-.42517.21582-.16064-.4209-1.47876-3.876c-.24832-.64527-.46735-1.303-.70245-1.95386-.23429-.65113-.46244-1.30493-.6756-1.96485.3273.61158.63968 1.2295.94586 1.8501.30539.62085.62686 1.23511.91907 1.86157l1.76422 3.75464-.58557-.20508c3.05575-1.75317 6.15243-3.4309 9.27429-5.06176 1.55917-.81885 3.14062-1.59644 4.72229-2.37354C477.52165 189.84854 479.12526 189.112 480.73946 188.39493zM448.22346 248.23258a33.2922 33.2922 0 014.554-1.57349q2.321-.654 4.66922-1.20679 4.69372-1.11144 9.43427-2.012l-.17917.22144-.83344-19.17823a65.52412 65.52412 0 01.11948-9.64111 25.47336 25.47336 0 012.47583-9.37915 11.3378 11.3378 0 013.12738-3.83447 9.40258 9.40258 0 014.63367-1.821 11.03355 11.03355 0 019.0866 3.3357 11.96113 11.96113 0 012.61475 4.21118 36.726 36.726 0 011.43143 4.64136 60.56347 60.56347 0 011.44546 9.55639 108.97355 108.97355 0 01-.41906 19.24634c-.311 3.1936-.748 6.37231-1.25065 9.53882a11.55824 11.55824 0 01-4.788 8.32031 10.75942 10.75942 0 01-2.162 1.19458l-2.24371.87793c-1.49829.56909-3.00281 1.12207-4.51846 1.64307-3.02924 1.04638-6.08753 2.01587-9.19187 2.81787a83.90119 83.90119 0 01-9.41458 1.93164 42.25071 42.25071 0 01-9.57986.37549 42.14149 42.14149 0 009.54733-.59058 83.57078 83.57078 0 009.33267-2.136q4.60259-1.32384 9.111-2.95043c1.503-.53833 2.99472-1.10816 4.47974-1.69385a18.02585 18.02585 0 004.22809-2.04541 10.77834 10.77834 0 004.37964-7.87305c.469-3.15723.90362-6.32007 1.19528-9.49658a108.07415 108.07415 0 00.337-19.084 59.96306 59.96306 0 00-1.45846-9.39575 35.74685 35.74685 0 00-1.3754-4.52881 10.97617 10.97617 0 00-2.38971-3.894 10.09267 10.09267 0 00-8.297-3.08911 8.48538 8.48538 0 00-4.19275 1.62549 10.45691 10.45691 0 00-2.89318 3.53 25.02107 25.02107 0 00-2.42826 9.05127 64.7673 64.7673 0 00-.2369 9.53222l.56164 19.18628.00559.19043-.18494.03125q-4.74577.79761-9.46146 1.79614-2.35524.50245-4.68854 1.09961A33.27312 33.27312 0 00448.22346 248.23258zM455.44627 199.46207c-.45523 1.44141-.96988 2.85889-1.45312 4.28906-.51642 1.42041-1.03534 2.82544-1.46878 4.25952a65.88392 65.88392 0 00-2.0762 8.71875 88.66109 88.66109 0 00-.93985 8.93677l-.37577 4.50855c-.16177 1.50073-.28921 3.00341-.48126 4.50293-.03439-1.51123-.00415-3.019-.0083-4.52857l.09717-4.52319c.02731-1.50733.08185-3.01123.18011-4.53345.11371-1.51587.29959-3.02637.54215-4.52759a48.40685 48.40685 0 012.33706-8.801C452.86955 204.91373 454.15865 202.19742 455.44627 199.46207zM440.02055 214.276c-.297 1.82543-.62411 3.563-.82486 5.32592-.12262.87769-.17932 1.75879-.23816 2.64527-.06411.89087-.04333 1.77758-.0816 2.71167a8.7066 8.7066 0 01-.69843-2.68994 12.23968 12.23968 0 01.026-2.78663 13.99424 13.99424 0 01.61233-2.70947A9.935 9.935 0 01440.02055 214.276z"/><path fill="#065082" d="M476.26616 251.28482c-1.45865-1.48461-2.853-2.92675-4.36853-4.23657a28.969 28.969 0 00-2.359-1.84082 27.95541 27.95541 0 00-2.62006-1.55322 10.30482 10.30482 0 015.63306 2.63843 15.75868 15.75868 0 012.13864 2.29565A11.7645 11.7645 0 01476.26616 251.28482zM485.61369 262.34928a9.858 9.858 0 01-1.21246 3.00512 11.44381 11.44381 0 01-2.061 2.55591 8.84637 8.84637 0 01-2.831 1.72388 6.78467 6.78467 0 01-3.243.3457 13.19824 13.19824 0 002.931-1.061 12.48839 12.48839 0 002.47272-1.74976A25.79432 25.79432 0 00485.61369 262.34928zM484.4691 268.45377a6.90588 6.90588 0 01-1.844 2.53125 10.141 10.141 0 01-2.66425 1.72119 11.12036 11.12036 0 01-3.05542.80713 11.6549 11.6549 0 01-1.56723.07446 13.66936 13.66936 0 01-1.552-.17407c.50964-.13574 1.01312-.20727 1.50876-.31519.49179-.13085.98813-.20312 1.46579-.35205a20.27 20.27 0 002.80072-.95629A15.7964 15.7964 0 00484.4691 268.45377zM444.21739 251.4755a35.594 35.594 0 01.97519 6.25757 35.18807 35.18807 0 01-.02136 6.333 35.18857 35.18857 0 01-.97519-6.25756A35.59789 35.59789 0 01444.21739 251.4755zM422.77821 196.632a38.40631 38.40631 0 01-3.9769 5.24268 37.98562 37.98562 0 01-4.725 4.58008 37.96706 37.96706 0 013.97693-5.24268A38.423 38.423 0 01422.77821 196.632z"/><path fill="#e6952a" d="M466.91859 278.09024c-.32788 5.8982-.734 11.79-1.10583 17.68457L464.578 313.44889c-.41773 5.89087-.82627 11.78247-1.30374 17.66845l-1.38089 17.66211.00055-.1145.85821 11.39746.78439 11.40283 1.56626 22.80616 1.40631 22.81738c.43216 7.60864.87359 15.21631 1.235 22.83008-.73791-7.58643-1.39584-15.17871-2.06305-22.77l-1.89178-22.78247-1.73184-22.79419-.86466-11.397-.79083-11.40235-.00415-.06006.0047-.05517 1.50446-17.6521c.48431-5.88526 1.03753-11.76514 1.5816-17.64575l1.65054-17.6399C465.72905 289.84293 466.28471 283.96329 466.91859 278.09024zM483.706 310.2316a5.09356 5.09356 0 01-1.02277 1.82153 6.4763 6.4763 0 01-1.56457 1.36939 4.537 4.537 0 01-2.07718.70288 2.06465 2.06465 0 01-2.0123-.88916 3.03912 3.03912 0 001.75534-.30859 17.16953 17.16953 0 001.513-.84229c.5116-.31738 1.03229-.64819 1.594-.96069A12.02124 12.02124 0 01483.706 310.2316z"/><path fill="#e6952a" d="M455.44627 278.45841c.34351 2.81543.52133 5.6311.63437 8.44653.05768 1.408.09247 2.81568.1207 4.22339.00473 1.40771.04459 2.81567.02045 4.22339l-.16013-.47193c1.48712 1.96534 2.95053 3.94874 4.351 5.98023 1.40506 2.02808 2.7764 4.082 4.0333 6.22388-1.743-1.7688-3.37152-3.62549-4.96637-5.50806-1.59937-1.87915-3.13583-3.8064-4.64862-5.752l-.15558-.2002-.00467-.272c-.02414-1.40772.01575-2.81568.02045-4.22339.02823-1.40771.063-2.81543.12069-4.22339C454.925 284.08951 455.10277 281.27384 455.44627 278.45841zM477.97743 354.24137a11.8718 11.8718 0 01.23285 4.90039 15.9841 15.9841 0 01-1.43478 4.75122 16.45448 16.45448 0 01-2.79712 4.09228 15.866 15.866 0 01-1.80121 1.68189 18.38447 18.38447 0 01-2.04407 1.35083c.477-.677 1.02249-1.25635 1.49787-1.89453.46417-.64722.976-1.24048 1.39224-1.905l.65674-.96411.59338-.99952a21.623 21.623 0 001.08756-2.03979 26.37967 26.37967 0 001.65533-4.32446A29.58948 29.58948 0 00477.97743 354.24137zM478.699 365.97794a16.05346 16.05346 0 01-3.9057 8.44678 10.25127 10.25127 0 01-3.98773 2.73755 7.28169 7.28169 0 01-4.73007-.02442 11.31926 11.31926 0 004.24871-1.10181 12.99888 12.99888 0 003.31589-2.6748 24.90184 24.90184 0 002.67871-3.4939C477.13493 368.61637 477.91182 367.3212 478.699 365.97794z"/><rect width=".397" height="11.803" x="403.882" y="222.098" fill="#7ca1b1"/><rect width="13.507" height=".398" x="421.185" y="240.78" fill="#7ca1b1" transform="rotate(-23.291 427.94 240.979)"/><rect width="12.752" height=".398" x="411.979" y="227.8" fill="#7ca1b1" transform="rotate(-67.781 418.355 228)"/><path fill="#6c7fd8" d="M437.21785,465.269c-2.24137-3.09661-.62927-6.88439,3.643-8.60634l17.97016-7.24285a1.97391,1.97391,0,0,1,1.91759.32247l6.408,6.05209a1.98334,1.98334,0,0,0,2.01666.28433l7.55319-3.16837c1.02475-.42985,2.32513.09407,2.32252.93573l-.032,10.30167c-.00186.598-.6908,1.08067-1.53879,1.078l-40.25352.05269Z"/><path fill="#f9977a" d="M270.427,438.74369l.20169,8.94857s11.67822,9.39685,26.41986,11.95059c0,0,4.53477,2.13,4.61016,5.47475l-44.23619-.1107-.391-17.34867-.20168-8.94857Z"/><path fill="#84382a" d="M300.90656,462.85109l-43.4845-.10638a1.02467,1.02467,0,0,0-1.02692,1.04776l.00485.21531a1.02467,1.02467,0,0,0,1.0219,1.00157l44.84851.10991S303.48906,463.74935,300.90656,462.85109Z"/><path fill="#84382a" d="M283.21056 462.40828a4.66585 4.66585 0 01-.15853-3.23424c.80624-2.42812 3.50128-3.42924 3.8056-3.53551a1.37052 1.37052 0 01.91327 2.58222 3.86649 3.86649 0 00-2.20757 1.89936 2.3809 2.3809 0 00.43737 1.98552 1.36384 1.36384 0 01-.40275 1.872 1.32387 1.32387 0 01-1.83188-.46213A7.07808 7.07808 0 01283.21056 462.40828zM255.80289 448.139a1.36629 1.36629 0 01.35348-1.528 1.30634 1.30634 0 011.87112.17375c1.68051 2.01153 3.48778 3.05377 5.37332 3.09829 3.42475.081 6.19654-3.07685 6.2245-3.10792a1.29839 1.29839 0 011.86891-.08978 1.39391 1.39391 0 01.13883 1.92284c-.14309.16813-3.56241 4.09981-8.20476 4.00146-2.69311-.05723-5.18038-1.42943-7.39305-4.07885A1.40354 1.40354 0 01255.80289 448.139z"/><path fill="#84382a" d="M255.80337,448.14021a1.37649,1.37649,0,0,1,.22962-1.40618,1.29683,1.29683,0,0,1,1.87161-.07935c.33843.31288,8.286,7.77836,6.39179,16.43358a1.28853,1.28853,0,0,1-1.58414.98984,1.40547,1.40547,0,0,1-1.00372-1.65445c1.551-7.0939-5.48029-13.69692-5.5504-13.76285A1.40546,1.40546,0,0,1,255.80337,448.14021Z"/><path fill="#f9977a" d="M219.28076,437.87641l-1.60011,8.80665s2.59824,5.57021,16.52633,11.03333c0,0,9.47676,4.7178,8.87867,8.00956l-8.774-.18411-33.04627-4.55009,3.10214-17.07356,1.6001-8.80665Z"/><path fill="#84382a" d="M241.88692,463.01741l-10.80375.25679-29.20865-4.48a.80632.80632,0,0,0-.91888.67242l-.10086.645c-.06877.43975-.30913,1.16491.36276,1.50457L231.397,465.726h11.68861S244.23632,464.41616,241.88692,463.01741Z"/><path fill="#84382a" d="M228.21973 462.33782a4.66584 4.66584 0 01.49443-3.20015c1.27759-2.21666 4.11881-2.656 4.43827-2.69893a1.37052 1.37052 0 01.37591 2.713 3.86654 3.86654 0 00-2.54413 1.41716 2.38087 2.38087 0 00.02959 2.03291 1.36386 1.36386 0 01-.77062 1.753 1.32389 1.32389 0 01-1.7017-.82072A7.07936 7.07936 0 01228.21973 462.33782zM203.06736 444.14231a1.36631 1.36631 0 01.65324-1.42583 1.30634 1.30634 0 011.79807.54609c1.24215 2.30813 2.8032 3.69218 4.64136 4.11458 3.33866.76735 6.68833-1.7693 6.722-1.79412a1.29839 1.29839 0 011.84884.28749 1.39392 1.39392 0 01-.25028 1.91154c-.17395.136-4.31339 3.30057-8.84135 2.27162-2.62671-.59708-4.78761-2.441-6.42293-5.48089A1.4037 1.4037 0 01203.06736 444.14231z"/><path fill="#84382a" d="M203.06759,444.14363a1.3765,1.3765,0,0,1,.50742-1.33139,1.29685,1.29685,0,0,1,1.8494.29826c.26867.37448,6.55445,9.28436,2.96014,17.38261a1.28853,1.28853,0,0,1-1.75069.65143,1.40548,1.40548,0,0,1-.6509-1.82237c2.94445-6.6377-2.617-14.51862-2.67242-14.5973A1.40532,1.40532,0,0,1,203.06759,444.14363Z"/><path fill="#376f92" d="M297.90312,349.59021l-10.13319,5.46987h0a5.93607,5.93607,0,0,0-6.8355.90085l-2.34692,2.18931-13.14456-.41185c10.35309-5.95571,2.93089-42.67878-1.75559-58.94633-3.03979-10.55168-4.70621-22.85273-3.84758-29.09885.8331-6.067-.65634-6.09225-3.68123-14.665-1.18131-3.35031.46164-17.0151-1.14131-24.2271-2.038-9.1739,14.92236,4.60222,16.59031,7.999,4.6958,9.563,7.68,26.53244,7.012,32.98378-1.57947,15.25337,13.927,42.09006,15.92509,49.24768C297.63091,332.091,301.16724,335.99813,297.90312,349.59021Z"/><path fill="#10394f" d="M292.207 349.42037c-.1427-3.49683-.09057-6.96415-.09729-10.42914.01685-1.73242-.01074-3.46094-.04028-5.18894a37.07278 37.07278 0 00-.38477-5.1777 18.39129 18.39129 0 011.16333 5.12491 48.53925 48.53925 0 01.26111 5.24283A59.16262 59.16262 0 01292.207 349.42037zM275.01354 355.33568c.17627-1.06354.398-2.1131.58411-3.17133l.636-3.15234 1.27613-6.29181c.442-2.09225.82592-4.1926 1.21484-6.29178.20313-1.04965.35144-2.10455.50342-3.1625l.20129-1.59064.12317-1.60465c.0564.53327.11511 1.07212.14173 1.61243l.02258 1.62183c-.05383 1.07715-.11817 2.15686-.23035 3.22949-.21277 2.14795-.57446 4.27466-.99719 6.38412-.442 2.10608-.919 4.204-1.511 6.27185C276.39818 351.2607 275.77856 353.32039 275.01354 355.33568zM282.89892 325.58226c-.3534-2.01431-.694-4.02682-1.098-6.02853-.36755-2.007-.75842-4.00943-1.18945-6.00257-.84949-3.98761-1.70154-7.97442-2.77637-11.90344-1.01147-3.94391-2.16223-7.85126-3.50085-11.69449-.31091-.96982-.70215-1.90844-1.04968-2.86545l-.53711-1.42987-.6084-1.3992c-.41113-.92984-.749-1.89929-1.22241-2.801q-.68592-1.365-1.346-2.75229a62.56861 62.56861 0 015.48523 10.98151 118.29491 118.29491 0 013.74573 11.70883c1.00012 3.97388 1.87133 7.97793 2.56213 12.01269C282.04272 317.44432 282.61291 321.50035 282.89892 325.58226z"/><path fill="#376f92" d="M224.36783,294.14458,203.72008,439.45931c-.14507,3.35293,13.96057,7.22375,15.28,3.84l27.23652-124.88575,8.24349,116.698c.06333,1.05618.85672,8.64732,1.9148,8.64732h14.112a.98918.98918,0,0,0,.97607-.777,41.69736,41.69736,0,0,0,.471-7.00881l-1.32834-141.82851Z"/><path fill="#10394f" d="M219.03405 369.88515a25.04282 25.04282 0 003.469.60943 18.636 18.636 0 003.49182.06327 12.84912 12.84912 0 003.3888-.73581 10.75818 10.75818 0 002.985-1.80374 8.60069 8.60069 0 01-2.86193 2.10165 11.974 11.974 0 01-3.47779.8551A16.25714 16.25714 0 01219.03405 369.88515zM217.16711 376.55245c1.35351-.041 2.70019-.153 4.03967-.29059a33.932 33.932 0 003.982-.62635 18.9862 18.9862 0 003.8368-1.163 10.06409 10.06409 0 003.343-2.18719 8.69067 8.69067 0 01-3.20971 2.48071 17.32631 17.32631 0 01-3.88257 1.27878 29.28389 29.28389 0 01-8.10925.5076zM253.97069 370.81584a25.855 25.855 0 003.00379.31305 20.36814 20.36814 0 002.99695-.06717 14.99625 14.99625 0 005.73364-1.64465 10.10318 10.10318 0 01-2.697 1.42053 13.2524 13.2524 0 01-2.99793.64093A15.29994 15.29994 0 01253.97069 370.81584zM253.97069 376.5641a21.533 21.533 0 003.50513.67722 26.16244 26.16244 0 003.55237.18121 27.90079 27.90079 0 003.55041-.24927c1.18287-.13473 2.34913-.37857 3.52674-.60916a21.34222 21.34222 0 01-3.478.92783 23.178 23.178 0 01-3.59473.34918 21.98789 21.98789 0 01-3.60217-.28216A14.21171 14.21171 0 01253.97069 376.5641zM240.6361 314.14647c1.37427 1.07657 2.80749 2.07025 4.25793 3.029a48.53843 48.53843 0 004.48523 2.64972 32.98864 32.98864 0 004.76172 2.07828 20.54349 20.54349 0 005.089 1.04382 16.97742 16.97742 0 01-5.18664-.7366 29.72118 29.72118 0 01-4.858-2.01459 41.44359 41.44359 0 01-4.47192-2.7554A38.49021 38.49021 0 01240.6361 314.14647zM230.76842 322.94731c1.99561-.32144 3.986-.60235 5.9419-1.04355a24.73882 24.73882 0 002.89453-.77261 7.287 7.287 0 002.63135-1.38412 5.9654 5.9654 0 01-2.51795 1.68591 19.70365 19.70365 0 01-2.91906.87988A29.06887 29.06887 0 01230.76842 322.94731zM249.933 321.34718a6.042 6.042 0 001.59449 3.2602 12.55574 12.55574 0 002.8042 2.36306c.50695.34781 1.054.63852 1.5863.94919.55664.26856 1.10535.55387 1.66846.812 1.12756.51777 2.29028.95179 3.45154 1.41639-.60523-.15067-1.20411-.32776-1.80872-.49164-.59766-.18387-1.1781-.42005-1.76965-.62833-.58973-.2142-1.1438-.51495-1.71753-.77-.54883-.30542-1.11267-.58938-1.639-.937a11.84848 11.84848 0 01-2.82385-2.51034A5.48063 5.48063 0 01249.933 321.34718z"/><path fill="#f9977a" d="M218.86784,233.9024s3.58209-2.42381,5.88-11.68211,3.11943-16.78926.05253-10.80473l-2.26156,4.5991s-1.424-7.53622-1.87918-12.10011a5.67952,5.67952,0,0,0-4.46022-5.07719c-2.23916-.43276-3.76651.5729-4.261,5.918-.73965,7.99435-.90262,12.23851-.50756,14.26585.13686.70235,2.23107,8.17961,2.23107,8.17961Z"/><path fill="#dd765e" d="M223.03405 220.63286a7.1555 7.1555 0 01-.30884-1.14011 11.53316 11.53316 0 01-.17309-1.146c-.03284-.38382-.06629-.76706-.06312-1.155a8.6928 8.6928 0 01.04981-1.17713 5.084 5.084 0 01.39612 1.12 8.06786 8.06786 0 01.19836 1.1535 8.56562 8.56562 0 01.038 1.16779A5.88306 5.88306 0 01223.03405 220.63286zM218.93908 211.54686a24.22692 24.22692 0 01-.49243-2.82638c-.12452-.94837-.18824-1.90287-.22327-2.85935a24.27933 24.27933 0 01.06665-2.873 13.17419 13.17419 0 01.50562-2.83126c-.1 1.91089-.04957 3.79007.01159 5.68606l.0857 2.844C218.91845 209.637 218.94738 210.58785 218.93908 211.54686zM216.13158 211.2036a23.32763 23.32763 0 01-.6792-3.069 26.47672 26.47672 0 01-.31884-3.132 17.73194 17.73194 0 01.12292-3.15808 7.41809 7.41809 0 01.94287-3.00717 10.74543 10.74543 0 00-.49512 3.04843c-.038 1.02826-.04162 2.06009.01294 3.09323C215.79345 207.0471 215.98888 209.11235 216.13158 211.2036zM213.5974 210.2578a16.99522 16.99522 0 01-.60974-2.55808 22.52017 22.52017 0 01-.28564-2.61572 19.48409 19.48409 0 01.05029-2.63556 12.84384 12.84384 0 01.48926-2.58908c-.02124.87976-.05054 1.74228-.04 2.60724.02454.86459.03467 1.72647.084 2.58939l.14673 2.59207z"/><path fill="#ffba55" d="M218.50059,226.67147l-5.86718-1.33346-7.791,27.92759c-2.5791,9.245,9.38629,15.357,15.37586,7.85723,2.3822-2.98292,4.05719-5.486,4.4162-6.98208l1.33349,15.73484-13.28039,90.509a66.68147,66.68147,0,0,0,29.5486,7.63372,70.802,70.802,0,0,0,32.10929-7.63372c-.39271-31.67116-3.75917-58.70144-3.62985-90,.01044-2.52693,2.21536-24.07918,2.19016-26.11143l11.95984,15.71866c5.64184,6.68347,16.04284,6.68347,21.11-5.051l8.00079-17.60168-11.20111-6.934-8.00073,12.80122-16.19286-24.48206a20.93936,20.93936,0,0,0-17.46479-9.38783H236.70317a13.1778,13.1778,0,0,0-11.14574,6.14737Z"/><path fill="#e6952a" d="M206.53026 247.21535c1.65528-3.62192 3.57227-7.0914 5.55347-10.5235 2.0072-3.4169 4.08008-6.79556 6.41687-10.02039-1.6532 3.62314-3.57056 7.09247-5.55347 10.52353C210.93822 240.61083 208.8651 243.98934 206.53026 247.21535zM224.63451 254.14076c-.20617-2.28912-.30285-4.57821-.38281-6.86734-.09143-2.28909-.10437-4.57818-.11682-6.86731.01111-2.28909.02441-4.57821.115-6.86731l.13953-3.43368c.08313-1.14453.13171-2.28909.24511-3.43366.11341 1.14457.16211 2.28913.24512 3.43366l.13953 3.43368c.09057 2.2891.10388 4.57822.11511 6.86731-.01257 2.28913-.02551 4.57822-.11694 6.86731C224.93737 249.56255 224.84081 251.85164 224.63451 254.14076zM272.90575 244.27315c-1.64074-2.34027-3.19116-4.73477-4.72546-7.13892-1.54614-2.39706-3.02478-4.83459-4.50269-7.27261l-.025-.04126-.01282-.03644a20.58176 20.58176 0 01-.99524-4.39221 17.69187 17.69187 0 01.05164-4.48874 13.32307 13.32307 0 011.4176-4.25122 11.23471 11.23471 0 012.92481-3.31488 12.25346 12.25346 0 00-2.48255 3.54022 12.7434 12.7434 0 00-1.08911 4.12171 19.529 19.529 0 00.12292 4.275 20.65843 20.65843 0 00.98035 4.15231l-.03772-.07733c1.45569 2.45126 2.91065 4.90308 4.2981 7.39536C270.22973 239.22929 271.613 241.72411 272.90575 244.27315zM227.83483 286.6772c1.53906.50665 3.08691.96246 4.65991 1.32053.78015.19885 1.57019.35946 2.35327.54086l2.37232.43738a63.039 63.039 0 009.57666.84817c1.60315.06739 3.20093-.05545 4.80176-.12222.79773-.06454 1.59228-.1673 2.38952-.24887l1.19483-.13379 1.18457-.20343c.78882-.142 1.58557-.25708 2.37133-.42139l2.33558-.598c.38989-.09894.78881-.17322 1.173-.29281l1.14685-.3805q1.14588-.38723 2.31067-.746a38.53015 38.53015 0 01-9.19348 3.19431l-1.19409.27493c-.40174.06961-.80738.11578-1.21119.17477-.80883.107-1.61669.2349-2.42822.32425-1.62951.098-3.26025.22956-4.89392.178a48.60687 48.60687 0 01-9.708-1.09546A42.78179 42.78179 0 01227.83483 286.6772zM301.44189 247.21535a16.78747 16.78747 0 00-2.84314-3.61383 3.26 3.26 0 00-1.81226-.88831 2.2571 2.2571 0 00-1.65063.82318l-.0282-.6885a9.47109 9.47109 0 011.759 2.53469 13.4529 13.4529 0 011.01306 2.84308 14.98612 14.98612 0 01.09509 5.9151l-.09619-1.46252c-.06262-.48334-.09594-.96567-.18188-1.44064a19.58177 19.58177 0 00-.62122-2.7974 15.93207 15.93207 0 00-1.07165-2.616 10.46869 10.46869 0 00-1.56226-2.25915l-.38086-.4036.35254-.28518a4.11623 4.11623 0 011.07214-.80378 1.67422 1.67422 0 01.665-.22384 1.81712 1.81712 0 01.70838-.02988 3.7738 3.7738 0 012.24328 1.2601 9.85826 9.85826 0 011.38929 1.96979A13.32329 13.32329 0 01301.44189 247.21535z"/><path fill="#f9977a" d="M304.18616,231.27854l5.87874-15.00806,9.26926-12.359a1.43258,1.43258,0,0,1,2.0129-.281h0a1.43257,1.43257,0,0,1,.32331,1.938l-5.20486,7.76845s7.23237-5.10071,7.74769,3.79021a2.48684,2.48684,0,0,1-2.0069,2.58552,7.41229,7.41229,0,0,0-2.45158.91386s.889,8.44525-4.62267,8.71194l-2.30944,7.28653Z"/><path fill="#f9977a" d="M308.72487 219.6915s.84518-6.1289.27167-7.69534a1.7438 1.7438 0 01.08449-1.30179c.602-1.34865 1.8586-3.02889 2.91472 3.00164l-1.93085 2.57447zM240.15776 209.77014l-.66673-35.3367H265.7602v21.00322a8.33535 8.33535 0 01-8.33535 8.33535H256.826l.13334 5.99813z"/><polygon fill="#dd765e" points="256.826 203.772 252.626 203.772 256.959 209.77 256.826 203.772"/><path fill="#1e1d22" d="M240.04459,203.772s4.27106,6.4858,17.44816-13.2037c0,0-5.41879-2.9557-.63359-6.38167a2.76379,2.76379,0,0,1,1.46088-.51737c.958-.05052,2.41723.095,2.50636,1.43185l4.9338-10.66768s5.06715,1.20011,4.80046-4.80046c0,0,5.2005-3.067-1.20011-5.73388,0,0,.26669-7.46738-6.80065-2.00019,0,0-4.80046-11.06773-17.0683,4.66711,0,0-20.00191,1.7335-10.53434,18.40175Z"/><circle cx="256.767" cy="192.613" r="2.784" fill="#f73c4f"/><path fill="#376f92" d="M264.23565,354.26458l-11.16,2.83818h0a5.93608,5.93608,0,0,0-6.84914-.79049l-2.80933,1.552-12.64875-3.59973c11.49157-3.25586,13.23358-40.68095,12.64874-57.6-.37933-10.97426.9993-23.31087,3.35281-29.16,2.28516-5.68164.84668-6.06873,0-15.12-.33008-3.53711,4.59037-16.39071,4.79154-23.776.25683-9.394,1.77-20.633,10.51414-21.83755,5.957-.82177,10.06594,4.37544,11.34133,6.5605,0,0-2.68821-2.13431-5.1241-1.2607-5.336,1.91371-3.37853,24.63459-2.58777,28.33524,2.22624,10.41847.98916,27.60389-1.22946,33.69847-5.24563,14.40983,3.26038,44.2143,3.4557,51.643C268.23213,337.22562,270.71077,341.8762,264.23565,354.26458Z"/><path fill="#10394f" d="M258.75231 352.71306c.713-3.42639 1.60767-6.77667 2.44482-10.139.43812-1.67621.83228-3.3594 1.22425-5.04263a37.07844 37.07844 0 00.88733-5.11557 18.38655 18.38655 0 01-.11939 5.2539 48.514 48.514 0 01-1.02319 5.14869A59.16558 59.16558 0 01258.75231 352.71306zM240.6361 354.2643c.42981-.98862.90039-1.95264 1.33862-2.93369L243.359 348.428l2.76953-5.79177c.93823-1.9217 1.82178-3.86536 2.71008-5.80671.45276-.96856.8534-1.95562 1.25843-2.94476l.58239-1.49377.51014-1.52637c-.07508.531-.14942 1.06787-.25513 1.59839l-.37305 1.57855c-.31445 1.03162-.63965 2.06317-1.00952 3.07623-.72937 2.03153-1.598 4.00617-2.52148 5.94925-.94153 1.93509-1.91492 3.85373-2.99256 5.71527C242.97118 350.64906 241.86864 352.4959 240.6361 354.2643z"/><path fill="#1e1d22" d="M234.35564,171.55654c-4.68,2.87689-8.72364,4.19718-10.44,14.708-.94159,5.76614-.94159,5.76614-.72,17.04.52918,26.91728-2.3764,32.48108-3.6,34.56-2.90033,4.92754-4.5232,4.15988-8.64,11.04-3.202,5.35132-6.427,10.74112-6.24,17.52.21131,7.66243,4.77863,16.98154,12.96,20.4,11.41278,4.76864,25.00135-3.97444,30.72-12.96,7.21752-11.34059,4.9873-27.91925,4.31994-32.88-.50549-3.75764-1.66565-9.57035-.48-17.52.129-.86511.43781-2.77453,2.64-10.32,4.99633-17.11929-2.9729-25.06608-7.68-31.44C243.29948,176.42869,237.06444,169.89135,234.35564,171.55654Z"/><path fill="#10394f" d="M258.75231 266.18459l.62488-9.91278c.18811-3.30219.40784-6.59934.55664-9.89881.15417-3.29852.25525-6.59686.27075-9.89447-.02124-1.64654-.04126-3.29626-.18677-4.93545a23.11163 23.11163 0 00-.78784-4.87162c1.29431 3.08365 1.52429 6.48792 1.74353 9.78669.16638 3.3229.09119 6.64633-.04138 9.962-.17468 3.31385-.42114 6.6221-.79211 9.91724C259.77795 259.63283 259.34789 262.921 258.75231 266.18459zM255.52819 327.326c.14758-2.03977.30713-4.07465.40271-6.11448.13208-2.0361.24048-4.07345.30774-6.11154.147-4.07443.29114-8.14877.2052-12.22122-.02075-4.07147-.18567-8.14145-.54822-12.19492-.06543-1.01632-.21643-2.022-.32043-3.03479l-.17286-1.5176-.24938-1.50522c-.17249-1.002-.264-2.02451-.50367-3.01432q-.33306-1.49092-.63537-2.99719a62.57191 62.57191 0 012.64648 11.98654 118.29667 118.29667 0 01.78235 12.26847c.00244 4.09778-.12744 8.19348-.4397 12.275C256.679 319.22447 256.2445 323.29732 255.52819 327.326z"/><path fill="#376f92" d="M216.98008 359.41931a1.5009 1.5009 0 000-3 1.5009 1.5009 0 000 3zM222.92008 361.57931a1.5009 1.5009 0 000-3 1.5009 1.5009 0 000 3zM229.58008 363.73931a1.5009 1.5009 0 000-3 1.5009 1.5009 0 000 3zM236.60008 364.81931a1.5009 1.5009 0 000-3 1.5009 1.5009 0 000 3zM244.70008 365.17931a1.5009 1.5009 0 000-3 1.5009 1.5009 0 000 3zM253.52008 364.27931a1.5009 1.5009 0 000-3 1.5009 1.5009 0 000 3zM261.98008 362.29931a1.5009 1.5009 0 000-3 1.5009 1.5009 0 000 3zM269.00008 360.31931a1.5009 1.5009 0 000-3 1.5009 1.5009 0 000 3zM303.38008 236.47931a1.5009 1.5009 0 000-3 1.5009 1.5009 0 000 3zM306.98008 238.63931a1.5009 1.5009 0 000-3 1.5009 1.5009 0 000 3zM310.58008 240.79931a1.5009 1.5009 0 000-3 1.5009 1.5009 0 000 3zM214.46008 229.81931a1.5009 1.5009 0 000-3 1.5009 1.5009 0 000 3z"/><path fill="#ffba55" d="M205.76008 439.33931a1.5009 1.5009 0 000-3 1.5009 1.5009 0 000 3zM211.02338 442.03931a1.5009 1.5009 0 000-3 1.5009 1.5009 0 000 3zM217.04008 442.45931a1.5009 1.5009 0 000-3 1.5009 1.5009 0 000 3zM258.56008 442.27931a1.5009 1.5009 0 000-3 1.5009 1.5009 0 000 3zM264.08008 442.27931a1.5009 1.5009 0 000-3 1.5009 1.5009 0 000 3zM269.36008 441.91931a1.5009 1.5009 0 000-3 1.5009 1.5009 0 000 3z"/><path fill="#935b50" d="M514.53891,182.82806V465.3466h63.87166V182.82806a3.06486,3.06486,0,0,0-3.06485-3.06486h-57.742A3.06486,3.06486,0,0,0,514.53891,182.82806Z"/><rect width="56.822" height="42.203" x="518.064" y="231.161" fill="#e19974" rx="3.065"/><rect width="56.822" height="42.203" x="518.064" y="184.36" fill="#e19974" rx="3.065"/><path fill="#d6694b" d="M571.27656 221.20719a1.59036 1.59036 0 01.65564 1.38037 2.06337 2.06337 0 01-1.94969 1.95386 1.58515 1.58515 0 01-1.38144-.6587 11.69981 11.69981 0 00.66619-1.06616 2.39755 2.39755 0 01.38632-.55664 2.56266 2.56266 0 01.55971-.38525A11.25312 11.25312 0 00571.27656 221.20719zM568.60107 187.04117a1.58955 1.58955 0 011.38021-.65552 2.063 2.063 0 011.9539 1.94971 1.58466 1.58466 0 01-.65862 1.38135 11.73074 11.73074 0 00-1.06623-.66626 2.39793 2.39793 0 01-.55675-.38623 2.56413 2.56413 0 01-.38509-.55982A11.31731 11.31731 0 00568.60107 187.04117zM521.67293 189.71671a1.59 1.59 0 01-.65566-1.38013 2.06288 2.06288 0 011.94969-1.95386 1.58439 1.58439 0 011.38146.65845 11.66363 11.66363 0 00-.6662 1.06641 2.40818 2.40818 0 01-.38632.55664 2.55422 2.55422 0 01-.55971.385A11.3556 11.3556 0 00521.67293 189.71671zM524.34842 223.88272a1.59045 1.59045 0 01-1.38022.65577 2.06345 2.06345 0 01-1.9539-1.94971 1.58537 1.58537 0 01.65863-1.38159 11.67222 11.67222 0 001.06624.66626 2.40548 2.40548 0 01.55673.38647 2.562 2.562 0 01.3851.55957A11.28021 11.28021 0 00524.34842 223.88272zM571.27656 268.00772a1.58968 1.58968 0 01.65564 1.38013 2.06286 2.06286 0 01-1.94969 1.95386 1.58456 1.58456 0 01-1.38144-.65869 11.70261 11.70261 0 00.66619-1.06616 2.40309 2.40309 0 01.38632-.55665 2.56266 2.56266 0 01.55971-.38525A11.28935 11.28935 0 00571.27656 268.00772zM568.60107 233.84146a1.59012 1.59012 0 011.38021-.65551 2.063 2.063 0 011.9539 1.9497 1.58466 1.58466 0 01-.65862 1.38135 11.65907 11.65907 0 00-1.06623-.666 2.40522 2.40522 0 01-.55675-.38648 2.56175 2.56175 0 01-.38509-.55957A11.313 11.313 0 00568.60107 233.84146zM521.67293 236.517a1.5897 1.5897 0 01-.65566-1.38012A2.06286 2.06286 0 01522.967 233.183a1.585 1.585 0 011.38146.65844 11.7322 11.7322 0 00-.6662 1.06641 2.40774 2.40774 0 01-.38632.55664 2.56206 2.56206 0 01-.55971.38526A11.28628 11.28628 0 00521.67293 236.517zM524.34842 270.683a1.58985 1.58985 0 01-1.38022.65576 2.06293 2.06293 0 01-1.9539-1.94971 1.5847 1.5847 0 01.65863-1.38135 11.654 11.654 0 001.06624.666 2.40548 2.40548 0 01.55673.38647 2.56209 2.56209 0 01.3851.55958A11.28151 11.28151 0 00524.34842 270.683z"/><rect width="56.822" height="42.203" x="518.064" y="324.762" fill="#e19974" rx="3.065"/><rect width="56.822" height="42.203" x="518.064" y="371.562" fill="#e19974" rx="3.065"/><rect width="17.47" height="6.436" x="537.74" y="199.715" fill="#d6694b" rx="1.187"/><rect width="17.47" height="6.436" x="537.74" y="340.116" fill="#d6694b" rx="1.187"/><rect width="17.47" height="6.436" x="537.74" y="386.917" fill="#d6694b" rx="1.187"/><rect width="17.47" height="6.436" x="537.74" y="246.516" fill="#d6694b" rx="1.187"/><path fill="#d6694b" d="M571.27656 361.60831a1.59 1.59 0 01.65564 1.38013 2.06334 2.06334 0 01-1.94969 1.9541 1.58516 1.58516 0 01-1.38144-.65869 11.663 11.663 0 00.66619-1.06641 2.40848 2.40848 0 01.38632-.55664 2.56243 2.56243 0 01.55971-.385A11.30429 11.30429 0 00571.27656 361.60831zM568.60107 327.44229a1.59041 1.59041 0 011.38021-.65576 2.06347 2.06347 0 011.9539 1.94971 1.58533 1.58533 0 01-.65862 1.38159 11.678 11.678 0 00-1.06623-.66626 2.405 2.405 0 01-.55675-.38623 2.56428 2.56428 0 01-.38509-.55981A11.28561 11.28561 0 00568.60107 327.44229zM521.67293 330.11783a1.59011 1.59011 0 01-.65566-1.38037 2.06337 2.06337 0 011.94969-1.95386 1.5852 1.5852 0 011.38146.65869 11.70169 11.70169 0 00-.6662 1.06617 2.40459 2.40459 0 01-.38632.55688 2.57089 2.57089 0 01-.55971.385A11.25068 11.25068 0 00521.67293 330.11783zM524.34842 364.28385a1.58962 1.58962 0 01-1.38022.65552 2.063 2.063 0 01-1.9539-1.94971 1.5847 1.5847 0 01.65863-1.38135 11.72492 11.72492 0 001.06624.66626 2.40552 2.40552 0 01.55673.38623 2.56413 2.56413 0 01.3851.55982A11.28151 11.28151 0 00524.34842 364.28385zM571.27656 408.4086a1.59009 1.59009 0 01.65564 1.38037 2.06337 2.06337 0 01-1.94969 1.95386 1.58516 1.58516 0 01-1.38144-.65869 11.70121 11.70121 0 00.66619-1.06616 2.4052 2.4052 0 01.38632-.55689 2.57114 2.57114 0 01.55971-.385A11.251 11.251 0 00571.27656 408.4086zM568.60107 374.24259a1.58955 1.58955 0 011.38021-.65552 2.063 2.063 0 011.9539 1.94946 1.58481 1.58481 0 01-.65862 1.3816 11.73074 11.73074 0 00-1.06623-.66626 2.40525 2.40525 0 01-.55675-.38624 2.564 2.564 0 01-.38509-.55981A11.28447 11.28447 0 00568.60107 374.24259zM521.67293 376.91813a1.59 1.59 0 01-.65566-1.38013 2.06332 2.06332 0 011.94969-1.9541 1.58515 1.58515 0 011.38146.65869 11.70188 11.70188 0 00-.6662 1.06616 2.40459 2.40459 0 01-.38632.55688 2.56183 2.56183 0 01-.55971.385A11.2513 11.2513 0 00521.67293 376.91813zM524.34842 411.08414a1.59041 1.59041 0 01-1.38022.65576 2.06345 2.06345 0 01-1.9539-1.9497 1.58512 1.58512 0 01.65863-1.3816 11.66765 11.66765 0 001.06624.66626 2.40582 2.40582 0 01.55673.38623 2.56413 2.56413 0 01.3851.55982A11.28021 11.28021 0 00524.34842 411.08414z"/><path fill="#7ca1b1" d="M533.06971,397.99932s31.17734.63269,35.9138-4.63545c0,0-10.20964,36.57929-2.50206,54.52621l-34.6764-3.66189S535.86023,415.89836,533.06971,397.99932Z"/><path fill="#f65b2b" d="M525.43562,402.48059s31.17734.63268,35.9138-4.63546c0,0-10.20964,36.5793-2.50206,54.52621l-34.6764-3.66189S528.22614,420.37963,525.43562,402.48059Z"/><path fill="#fff" d="M529.33544,405.92415s31.17733.63269,35.9138-4.63546c0,0-10.20964,36.5793-2.50207,54.52622l-34.6764-3.66189S532.126,423.82319,529.33544,405.92415Z"/><path fill="#ffba55" d="M533.15248,259.79021s31.17734.63268,35.9138-4.63546c0,0-10.20964,36.5793-2.50206,54.52621l-34.6764-3.66189S535.943,277.68925,533.15248,259.79021Z"/><path fill="#f65b2b" d="M525.5184,264.27147s31.17733.63269,35.91379-4.63546c0,0-10.20964,36.5793-2.50206,54.52622l-34.6764-3.66189S528.30891,282.17051,525.5184,264.27147Z"/><path fill="#fff" d="M529.41821,267.715s31.17733.63269,35.9138-4.63545c0,0-10.20964,36.57929-2.50207,54.52621l-34.67639-3.66189S532.20873,285.61407,529.41821,267.715Z"/><rect width="56.822" height="42.203" x="518.064" y="418.362" fill="#e19974" rx="3.065"/><rect width="17.47" height="6.436" x="537.74" y="433.717" fill="#d6694b" rx="1.187"/><path fill="#d6694b" d="M571.27656 455.2089a1.59036 1.59036 0 01.65564 1.38037 2.06337 2.06337 0 01-1.94969 1.95386 1.58515 1.58515 0 01-1.38144-.6587 11.70121 11.70121 0 00.66619-1.06616 2.40489 2.40489 0 01.38632-.55688 2.57079 2.57079 0 01.55971-.385A11.25524 11.25524 0 00571.27656 455.2089zM568.60107 421.04288a1.58955 1.58955 0 011.38021-.65552 2.063 2.063 0 011.9539 1.94971 1.58466 1.58466 0 01-.65862 1.38135 11.73074 11.73074 0 00-1.06623-.66626 2.40556 2.40556 0 01-.55675-.38623 2.56413 2.56413 0 01-.38509-.55982A11.28447 11.28447 0 00568.60107 421.04288zM521.67293 423.71842a1.59 1.59 0 01-.65566-1.38013 2.06288 2.06288 0 011.94969-1.95386 1.58439 1.58439 0 011.38146.65845 11.66363 11.66363 0 00-.6662 1.06641 2.40818 2.40818 0 01-.38632.55664 2.55422 2.55422 0 01-.55971.385A11.30183 11.30183 0 00521.67293 423.71842zM524.34842 457.88443a1.59045 1.59045 0 01-1.38022.65577 2.06345 2.06345 0 01-1.9539-1.94971 1.58537 1.58537 0 01.65863-1.38159 11.67222 11.67222 0 001.06624.66626 2.40521 2.40521 0 01.55673.38623 2.564 2.564 0 01.3851.55981A11.28021 11.28021 0 00524.34842 457.88443z"/><rect width="56.822" height="42.203" x="518.064" y="277.961" fill="#e19974" rx="3.065"/><rect width="17.47" height="6.436" x="537.74" y="293.316" fill="#d6694b" rx="1.187"/><path fill="#d6694b" d="M571.27656 314.808a1.58967 1.58967 0 01.65564 1.38012 2.06286 2.06286 0 01-1.94969 1.95386 1.58491 1.58491 0 01-1.38144-.65845 11.69524 11.69524 0 00.66619-1.0664 2.408 2.408 0 01.38632-.55664 2.55377 2.55377 0 01.55971-.385A11.35808 11.35808 0 00571.27656 314.808zM568.60107 280.642a1.59036 1.59036 0 011.38021-.65576 2.063 2.063 0 011.9539 1.94971 1.58533 1.58533 0 01-.65862 1.38159 11.6757 11.6757 0 00-1.06623-.66626 2.40491 2.40491 0 01-.55675-.38648 2.56175 2.56175 0 01-.38509-.55957A11.28578 11.28578 0 00568.60107 280.642zM521.67293 283.31754a1.59038 1.59038 0 01-.65566-1.38037 2.06286 2.06286 0 011.94969-1.95386 1.5852 1.5852 0 011.38146.65869 11.70328 11.70328 0 00-.6662 1.06616 2.39725 2.39725 0 01-.38632.55664 2.56206 2.56206 0 01-.55971.38526A11.25068 11.25068 0 00521.67293 283.31754zM524.34842 317.48355a1.5896 1.5896 0 01-1.38022.65552 2.06293 2.06293 0 01-1.9539-1.9497 1.5847 1.5847 0 01.65863-1.38135 11.72722 11.72722 0 001.06624.66626 2.39789 2.39789 0 01.55673.38623 2.56174 2.56174 0 01.3851.55957A11.27613 11.27613 0 00524.34842 317.48355z"/><path fill="#8b9d36" d="M157.89732,438.68908c-.37387-.73686-37.37864-74.07278-35.08357-103.57322l-1.23651-.09524c-2.32215,29.84622,33.68,101.20736,35.214,104.23037Z"/><path fill="#8b9d36" d="M122.23291 336.73229a14.51127 14.51127 0 001.56683-5.37628 19.36436 19.36436 0 00-.16874-5.087 19.02827 19.02827 0 00-1.483-4.86763l-.02286-.04821a2.52866 2.52866 0 00-4.78115.79728l-.006.053a19.03116 19.03116 0 00.17694 5.08564 19.36224 19.36224 0 001.49122 4.86629A14.51137 14.51137 0 00122.23291 336.73229zM124.76508 355.65207a9.88461 9.88461 0 005.25038-2.36559 13.001 13.001 0 003.38466-4.44829 11.86914 11.86914 0 001.09824-5.636l-.00358-.06448a2.50347 2.50347 0 00-4.6968-.96835q-.05073.09249-.10194.18458c-.72447 1.329-1.31338 2.58527-1.93207 3.89928a44.97736 44.97736 0 00-1.68981 4.18955A29.46439 29.46439 0 00124.76508 355.65207zM122.50833 343.75589a9.88453 9.88453 0 005.25038-2.36558 13.001 13.001 0 003.38466-4.4483 11.86908 11.86908 0 001.09824-5.636l-.00358-.06449a2.50347 2.50347 0 00-4.6968-.96835q-.05073.09249-.10194.18458c-.72447 1.329-1.31337 2.58527-1.93206 3.89928a44.97458 44.97458 0 00-1.68982 4.18955A29.46461 29.46461 0 00122.50833 343.75589zM122.8549 347.021a15.34 15.34 0 00-1.79953-5.49047 20.85564 20.85564 0 00-3.08621-4.28984 20.48476 20.48476 0 00-4.06011-3.38109l-.09786-.06015a2.50566 2.50566 0 00-3.52132 3.285l.05347.1023a20.48365 20.48365 0 003.09252 4.284 20.88145 20.88145 0 004.06591 3.37558A15.35119 15.35119 0 00122.8549 347.021zM129.46211 371.71848a15.37079 15.37079 0 004.25513-3.91765 20.91885 20.91885 0 002.629-4.59144 20.54887 20.54887 0 001.39876-5.10171q.01257-.09876.02443-.19784a2.48269 2.48269 0 00-4.40651-1.82731q-.06181.07845-.12287.15723a20.54908 20.54908 0 00-2.62118 4.59459 20.92011 20.92011 0 00-1.39146 5.10513A15.36117 15.36117 0 00129.46211 371.71848zM134.1524 385.973a17.02786 17.02786 0 004.29961-4.36019 23.92172 23.92172 0 002.65932-4.99724 23.49259 23.49259 0 001.41734-5.47914q.01008-.08319.01972-.16658a2.48212 2.48212 0 00-4.4684-1.73478q-.04917.06806-.09787.1363a23.50823 23.50823 0 00-2.651 5 23.92736 23.92736 0 00-1.40955 5.48221A17.01757 17.01757 0 00134.1524 385.973zM139.39853 398.98881a19.46681 19.46681 0 004.82493-4.49 28.29374 28.29374 0 003.23466-5.245 27.79522 27.79522 0 002.03262-5.81734l.0269-.12494a2.4815 2.4815 0 00-4.35194-2.06825l-.07982.09967a27.80954 27.80954 0 00-3.22777 5.249 28.29814 28.29814 0 00-2.02465 5.82076A19.467 19.467 0 00139.39853 398.98881zM144.67811 412.03788a19.63934 19.63934 0 005.00385-4.33912 28.59994 28.59994 0 003.443-5.15268 28.0807 28.0807 0 002.26233-5.76881l.00007-.00029a2.50444 2.50444 0 00-4.324-2.25515h0a28.11 28.11 0 00-3.436 5.15686 28.62821 28.62821 0 00-2.25483 5.77265A19.64616 19.64616 0 00144.67811 412.03788zM149.33868 422.89021a21.65425 21.65425 0 005.58448-4.19151 32.22491 32.22491 0 004.10405-5.14332 31.64546 31.64546 0 002.98407-5.86383l.0001-.00026a2.49681 2.49681 0 00-4.10194-2.63769h0a31.65024 31.65024 0 00-4.09741 5.14812 32.2279 32.2279 0 00-2.97688 5.86834A21.64015 21.64015 0 00149.33868 422.89021zM155.143 434.65239a23.06768 23.06768 0 005.17372-5.04237 34.7703 34.7703 0 003.59281-5.81606 34.13855 34.13855 0 002.3962-6.40144l.00009-.00035a2.49232 2.49232 0 00-4.38028-2.14378h0a34.12 34.12 0 00-3.58534 5.81982 34.76329 34.76329 0 00-2.38877 6.40514A23.07012 23.07012 0 00155.143 434.65239zM126.046 361.61014a18.5357 18.5357 0 00-2.84952-5.75021 26.62588 26.62588 0 00-4.01334-4.42962 26.16255 26.16255 0 00-4.89348-3.43057l-.12576-.066a2.48172 2.48172 0 00-3.18009 3.60871l.08127.11636a26.1635 26.1635 0 004.01893 4.42333 26.626 26.626 0 004.89907 3.42429A18.53637 18.53637 0 00126.046 361.61014zM130.21351 375.17616a15.86139 15.86139 0 00-2.98962-5.0697 21.78733 21.78733 0 00-4.00174-3.6291 21.3952 21.3952 0 00-4.76694-2.53945l-.05217-.019a2.51755 2.51755 0 00-2.7863 3.96734l.03561.04258a21.39238 21.39238 0 004.0064 3.62235 21.78923 21.78923 0 004.77157 2.53264A15.85016 15.85016 0 00130.21351 375.17616zM134.73592 388.03519a17.67465 17.67465 0 00-4.01167-4.79366 25.09662 25.09662 0 00-4.81611-3.22819 24.61891 24.61891 0 00-5.425-2.04342h0a2.51427 2.51427 0 00-2.2287 4.3377h0a24.61259 24.61259 0 004.81974 3.2208 25.08917 25.08917 0 005.42861 2.03609A17.66449 17.66449 0 00134.73592 388.03519zM140.38179 401.87564a18.57909 18.57909 0 00-4.61847-4.47183 26.74774 26.74774 0 00-5.27349-2.83866 26.29492 26.29492 0 00-5.76959-1.60254l-.14017-.02022a2.4817 2.4817 0 00-1.79189 4.46424l.1152.08227a26.27482 26.27482 0 005.27687 2.83079 26.77241 26.77241 0 005.77294 1.5946A18.60145 18.60145 0 00140.38179 401.87564zM145.12028 413.40529a22.23657 22.23657 0 00-5.8508-3.9908 33.26881 33.26881 0 00-6.28376-2.28469 32.70187 32.70187 0 00-6.61062-.9939l-.0004 0a2.49507 2.49507 0 00-1.19866 4.72748h0a32.67571 32.67571 0 006.28569 2.27665 33.27531 33.27531 0 006.613.98552A22.22642 22.22642 0 00145.12028 413.40529z"/><path fill="#8b9d36" d="M149.82446 423.21743a19.29263 19.29263 0 00-5.68312-3.27216 27.98327 27.98327 0 00-5.93344-1.53018 27.48151 27.48151 0 00-6.12311-.21172h-.00009a2.50621 2.50621 0 00-.69416 4.82743h0a27.48567 27.48567 0 005.93509 1.5216 27.97929 27.97929 0 006.1242.20343A19.2849 19.2849 0 00149.82446 423.21743zM153.2084 431.13309a24.16588 24.16588 0 00-6.9186-2.64271 36.72594 36.72594 0 00-6.97277-.88331 36.07565 36.07565 0 00-7.01273.44756l-.00037.00007a2.4896 2.4896 0 00-.149 4.87485h0a36.09589 36.09589 0 006.97313.8749 36.72575 36.72575 0 007.013-.456A24.16555 24.16555 0 00153.2084 431.13309zM135.6437 437.18149a2.48621 2.48621 0 00.74454 4.80272h.00017a33.49771 33.49771 0 006.70034-.36076 32.88673 32.88673 0 006.49549-1.67662 22.12351 22.12351 0 006.22406-3.43266 22.12705 22.12705 0 00-6.97132-1.38662 32.89888 32.89888 0 00-6.69824.36864 33.49623 33.49623 0 00-6.495 1.68529z"/><path fill="#5f7d37" d="M140.1466,424.38127c.15578-.9352,15.43655-93.9397,2.77684-125.44234l1.32076-.52959c12.80828,31.87183-2.05426,122.36981-2.69357,126.20654Z"/><path fill="#5f7d37" d="M144.11526 300.50853a16.65021 16.65021 0 01-3.56441-5.34609 22.21891 22.21891 0 01-1.5651-5.62639 21.83393 21.83393 0 01-.051-5.83838l.00844-.06065a2.90139 2.90139 0 015.50784-.77186l.02475.05591a21.83675 21.83675 0 011.55566 5.62776 22.21685 22.21685 0 01.04155 5.83974A16.65033 16.65033 0 01144.11526 300.50853zM147.85142 322.0897a11.34161 11.34161 0 01-6.56093-.78343 14.9173 14.9173 0 01-5.23506-3.705 13.61854 13.61854 0 01-3.14082-5.7916l-.01826-.07182a2.87248 2.87248 0 014.80816-2.67557q.08736.08379.17508.167c1.25018 1.20558 2.32693 2.37815 3.45616 3.60369a51.61042 51.61042 0 013.29083 4.00475A33.80887 33.80887 0 01147.85142 322.0897zM146.22972 308.29152a11.34167 11.34167 0 01-6.56092-.78344 14.91753 14.91753 0 01-5.23507-3.705 13.61867 13.61867 0 01-3.14081-5.79161l-.01827-.07182a2.87248 2.87248 0 014.80817-2.67556q.08734.08379.17508.167c1.25017 1.20557 2.32693 2.37814 3.45616 3.60369a51.60853 51.60853 0 013.29083 4.00475A33.80716 33.80716 0 01146.22972 308.29152zM146.97348 311.98481a17.6011 17.6011 0 01.08123-6.629 23.92908 23.92908 0 011.90266-5.75736 23.50435 23.50435 0 013.2813-5.09764l.08643-.09949a2.875 2.875 0 014.98451 2.38462l-.02334.13037a23.50267 23.50267 0 01-1.91158 5.75314 23.95993 23.95993 0 01-3.28954 5.09359A17.61408 17.61408 0 01146.97348 311.98481zM148.23637 341.29216a17.63666 17.63666 0 01-6.00538-2.82471 24.00242 24.00242 0 01-4.45713-4.12163 23.57737 23.57737 0 01-3.286-5.10334q-.04774-.10379-.0948-.20816a2.84865 2.84865 0 014.195-3.516q.09465.06462.18858.12984a23.57823 23.57823 0 014.44965 4.12776 24.00408 24.00408 0 013.27919 5.10961A17.62577 17.62577 0 01148.23637 341.29216zM148.00545 358.509a19.53744 19.53744 0 01-6.20629-3.29384 27.44734 27.44734 0 01-4.6299-4.55539 26.95489 26.95489 0 01-3.43615-5.51009q-.03966-.08761-.07889-.17557a2.848 2.848 0 014.29452-3.436q.07724.05759.154.11553a26.97364 26.97364 0 014.62175 4.56131 27.45464 27.45464 0 013.42868 5.51615A19.526 19.526 0 01148.00545 358.509zM146.74 374.561a22.33643 22.33643 0 01-6.826-3.25519 32.46463 32.46463 0 01-5.34492-4.62872 31.89187 31.89187 0 01-4.226-5.66866l-.07242-.12751a2.84729 2.84729 0 014.05234-3.76094l.12165.08165a31.90888 31.90888 0 015.33875 4.63544 32.469 32.469 0 014.21844 5.67514A22.33652 22.33652 0 01146.74 374.561zM145.44938 390.661a22.53465 22.53465 0 01-6.96993-3.02854 32.81556 32.81556 0 01-5.54119-4.456 32.22008 32.22008 0 01-4.46075-5.53654l-.00018-.00028a2.87361 2.87361 0 013.95742-3.9559h0a32.25415 32.25415 0 015.535 4.463 32.8475 32.8475 0 014.45385 5.54331A22.542 22.542 0 01145.44938 390.661zM144.08072 404.14336a24.84591 24.84591 0 01-7.55473-2.66722 36.9744 36.9744 0 01-6.2616-4.21834 36.31011 36.31011 0 01-5.28346-5.39228l-.0002-.00025a2.86485 2.86485 0 013.5828-4.29827h0a36.31508 36.31508 0 016.256 4.22587 36.97739 36.97739 0 015.27716 5.39969A24.83008 24.83008 0 01144.08072 404.14336zM141.773 419.01517a26.46812 26.46812 0 01-7.39778-3.7399 39.89617 39.89617 0 01-5.93338-5.1306 39.17072 39.17072 0 01-4.82489-6.183l-.00022-.00035a2.85969 2.85969 0 014.05738-3.85336h0a39.151 39.151 0 015.92651 5.13729 39.88748 39.88748 0 014.818 6.18958A26.471 26.471 0 01141.773 419.01517zM148.49875 329.05219a21.26765 21.26765 0 011.14123-7.27452 30.55075 30.55075 0 012.86944-6.22929 30.01945 30.01945 0 014.17652-5.43845l.115-.11554a2.84752 2.84752 0 014.72232 2.85632l-.04893.15533a30.01957 30.01957 0 01-2.87772 6.22433 30.55076 30.55076 0 01-4.1848 5.43349A21.26884 21.26884 0 01148.49875 329.05219zM148.60323 345.3355a18.19931 18.19931 0 011.52867-6.57781 24.999 24.999 0 013.1321-5.349 24.549 24.549 0 014.34453-4.41947l.05055-.0388a2.88865 2.88865 0 014.41464 3.38435l-.02433.05885a24.54526 24.54526 0 01-3.13953 5.34325 25.00106 25.00106 0 01-4.35193 4.41361A18.18668 18.18668 0 01148.60323 345.3355zM148.07606 360.967a20.27968 20.27968 0 012.74239-6.62721 28.79589 28.79589 0 014.16144-5.1903 28.24793 28.24793 0 015.23542-4.10285h0a2.88488 2.88488 0 013.93167 3.98155h0a28.24015 28.24015 0 01-4.168 5.18346 28.78711 28.78711 0 01-5.242 4.09608A20.26854 20.26854 0 01148.07606 360.967zM146.65669 378.05922a21.31806 21.31806 0 013.51732-6.48365 30.69083 30.69083 0 014.79609-4.92124 30.17074 30.17074 0 015.76434-3.73878l.14647-.07035a2.84752 2.84752 0 013.49705 4.27033l-.0978.12967a30.148 30.148 0 01-4.80249 4.91379 30.71905 30.71905 0 01-5.77074 3.73126A21.34355 21.34355 0 01146.65669 378.05922zM145.43572 392.30986a25.51433 25.51433 0 015.03173-6.381 38.17294 38.17294 0 016.09252-4.66236 37.52282 37.52282 0 016.8943-3.36185l.00044-.00015a2.86285 2.86285 0 012.93822 4.76253h0a37.493 37.493 0 01-6.09739 4.65423 38.18 38.18 0 01-6.89984 3.3535A25.503 25.503 0 01145.43572 392.30986z"/><path fill="#5f7d37" d="M143.66152 404.66865a22.13679 22.13679 0 015.09537-5.53667 32.10817 32.10817 0 015.96859-3.71593 31.53174 31.53174 0 016.62971-2.338l.00011 0a2.87563 2.87563 0 012.42037 5.04548h0a31.53686 31.53686 0 01-5.97334 3.70712 32.1028 32.1028 0 01-6.63377 2.32927A22.12771 22.12771 0 01143.66152 404.66865zM142.68015 414.49738a27.72816 27.72816 0 016.66429-5.27264 42.13939 42.13939 0 017.32877-3.36536 41.39269 41.39269 0 017.8303-1.92229l.00043-.00006a2.85658 2.85658 0 011.83992 5.28491h0a41.41718 41.41718 0 01-7.33206 3.35628 42.139 42.139 0 01-7.83356 1.91312A27.72787 27.72787 0 01142.68015 414.49738zM163.98753 415.0763a2.85269 2.85269 0 01.837 5.51331l-.00017.00007a38.43654 38.43654 0 01-7.45849 1.90986 37.73552 37.73552 0 01-7.68689.399 25.3843 25.3843 0 01-7.99379-1.61657 25.38857 25.38857 0 017.154-3.9158 37.74691 37.74691 0 017.4589-1.90051 38.43327 38.43327 0 017.68936-.38937z"/><path fill="#c4ce6e" d="M138.93627,443.6846c.30689-.60483,30.68151-60.80114,28.79764-85.016l1.015-.07818c1.90609,24.49867-27.64556,83.074-28.9047,85.55539Z"/><path fill="#c4ce6e" d="M168.21068 359.99544a11.91143 11.91143 0 01-1.28609-4.413 15.89429 15.89429 0 01.1385-4.17553 15.619 15.619 0 011.21731-3.9955l.01876-.03957a2.07559 2.07559 0 013.92451.65443l.0049.04347a15.62123 15.62123 0 01-.14523 4.17444 15.8934 15.8934 0 01-1.224 3.9944A11.91138 11.91138 0 01168.21068 359.99544zM166.1322 375.52535a8.11363 8.11363 0 01-4.30966-1.94174 10.6715 10.6715 0 01-2.77823-3.65129 9.7426 9.7426 0 01-.90147-4.62622l.00294-.05293a2.05492 2.05492 0 013.85527-.79485q.04164.07592.08368.15151c.59466 1.09089 1.078 2.12206 1.58589 3.20064a36.9203 36.9203 0 011.38706 3.43891A24.18573 24.18573 0 01166.1322 375.52535zM167.98461 365.76061a8.11351 8.11351 0 01-4.30967-1.94174 10.67175 10.67175 0 01-2.77823-3.65129 9.74248 9.74248 0 01-.90146-4.62622l.00294-.05293a2.05492 2.05492 0 013.85527-.79485q.04164.07593.08367.15151c.59467 1.09089 1.07806 2.12207 1.5859 3.20065a36.91846 36.91846 0 011.387 3.4389A24.18526 24.18526 0 01167.98461 365.76061zM167.70014 368.44071a12.59188 12.59188 0 011.4771-4.50675 17.11889 17.11889 0 012.53326-3.52122 16.81424 16.81424 0 013.33266-2.7753l.08032-.04937a2.05672 2.05672 0 012.89041 2.69643l-.04389.084a16.814 16.814 0 01-2.53843 3.51643 17.14054 17.14054 0 01-3.33742 2.77077A12.60068 12.60068 0 01167.70014 368.44071zM162.27674 388.71314a12.61712 12.61712 0 01-3.49274-3.21572 17.17108 17.17108 0 01-2.158-3.76879 16.86731 16.86731 0 01-1.14814-4.18764q-.01032-.08106-.02-.16239a2.03786 2.03786 0 013.617-1.49991q.05075.06439.10086.12905a16.86757 16.86757 0 012.15154 3.77138 17.17213 17.17213 0 011.14216 4.19045A12.60924 12.60924 0 01162.27674 388.71314zM158.42681 400.41369a13.97732 13.97732 0 01-3.52925-3.579 19.63529 19.63529 0 01-2.18284-4.10189 19.28261 19.28261 0 01-1.16339-4.49743l-.01619-.13674a2.0374 2.0374 0 013.66779-1.424l.08034.11188a19.29682 19.29682 0 012.176 4.10418 19.64072 19.64072 0 011.157 4.5A13.96852 13.96852 0 01158.42681 400.41369zM154.12063 411.09744a15.97911 15.97911 0 01-3.96044-3.6855 23.22445 23.22445 0 01-2.65511-4.30527 22.81453 22.81453 0 01-1.66843-4.775l-.02208-.10255a2.03689 2.03689 0 013.5722-1.69769l.06552.08181a22.82758 22.82758 0 012.64945 4.30854 23.2281 23.2281 0 011.66189 4.77784A15.979 15.979 0 01154.12063 411.09744zM149.787 421.80851a16.12055 16.12055 0 01-4.10731-3.56169 23.47546 23.47546 0 01-2.82611-4.22947 23.04948 23.04948 0 01-1.857-4.73521l-.00006-.00023a2.05573 2.05573 0 013.54924-1.85111h0a23.07341 23.07341 0 012.82036 4.2329 23.499 23.499 0 011.85083 4.73836A16.12609 16.12609 0 01149.787 421.80851zM145.96147 430.71642a17.77416 17.77416 0 01-4.58391-3.44052 26.45035 26.45035 0 01-3.36873-4.22179 25.97582 25.97582 0 01-2.44941-4.8132l-.00008-.00022a2.04945 2.04945 0 013.367-2.16509h0a25.97939 25.97939 0 013.36328 4.22573 26.45375 26.45375 0 012.44352 4.81691A17.763 17.763 0 01145.96147 430.71642zM141.19708 440.37117a18.935 18.935 0 01-4.24675-4.13893 28.54088 28.54088 0 01-2.94908-4.774 28.02182 28.02182 0 01-1.96687-5.25449l-.00007-.00028a2.04576 2.04576 0 013.59546-1.75968h0a28.00781 28.00781 0 012.94295 4.77709 28.535 28.535 0 011.96078 5.25752A18.937 18.937 0 01141.19708 440.37117zM165.08081 380.41591a15.21462 15.21462 0 012.339-4.71994 21.85512 21.85512 0 013.29427-3.636 21.47513 21.47513 0 014.01671-2.81592l.10323-.0542a2.03706 2.03706 0 012.6103 2.96213l-.0667.09552a21.476 21.476 0 01-3.29886 3.6308 21.85491 21.85491 0 01-4.0213 2.81075A15.21492 15.21492 0 01165.08081 380.41591zM161.66 391.55131a13.01944 13.01944 0 012.454-4.16137 17.884 17.884 0 013.28475-2.97887 17.56151 17.56151 0 013.91285-2.08445l.04281-.01564a2.06648 2.06648 0 012.28708 3.25651l-.02922.03495a17.55943 17.55943 0 01-3.28858 2.97334 17.885 17.885 0 01-3.91664 2.07886A13.0103 13.0103 0 01161.66 391.55131zM157.94785 402.10639a14.50748 14.50748 0 013.29289-3.93479 20.60029 20.60029 0 013.95321-2.64979 20.20788 20.20788 0 014.45295-1.6773h0a2.06378 2.06378 0 011.82938 3.56051h0a20.20292 20.20292 0 01-3.95619 2.64372 20.5939 20.5939 0 01-4.456 1.67129A14.49993 14.49993 0 01157.94785 402.10639zM153.31354 413.467a15.25083 15.25083 0 013.791-3.67062 21.95574 21.95574 0 014.32864-2.33006 21.58385 21.58385 0 014.73585-1.3154l.11505-.0166a2.03706 2.03706 0 011.47084 3.66438l-.09455.06753a21.56785 21.56785 0 01-4.33142 2.3236 21.976 21.976 0 01-4.7386 1.30889A15.26873 15.26873 0 01153.31354 413.467zM149.42405 422.93092a18.25248 18.25248 0 014.80251-3.27577 27.30893 27.30893 0 015.1579-1.87535 26.84339 26.84339 0 015.42619-.81582h.00033a2.048 2.048 0 01.98389 3.88046h0a26.82186 26.82186 0 01-5.15948 1.86875 27.31309 27.31309 0 01-5.42818.80894A18.24463 18.24463 0 01149.42405 422.93092z"/><path fill="#c4ce6e" d="M145.56272 430.985a15.83612 15.83612 0 014.66487-2.68589 22.96981 22.96981 0 014.87035-1.256 22.5569 22.5569 0 015.026-.17378h.00008a2.05717 2.05717 0 01.56978 3.9625h0a22.561 22.561 0 01-4.87169 1.249 22.96644 22.96644 0 01-5.02693.167A15.82948 15.82948 0 01145.56272 430.985zM142.78508 437.48242a19.83648 19.83648 0 015.679-2.16922 30.14519 30.14519 0 015.72345-.725 29.61162 29.61162 0 015.75626.36737l.00031.00006a2.04354 2.04354 0 01.12229 4.00142h0a29.62838 29.62838 0 01-5.72375.71814 30.14524 30.14524 0 01-5.75652-.37433A19.83581 19.83581 0 01142.78508 437.48242zM157.20271 442.44713a2.04076 2.04076 0 01-.61114 3.94222h-.00014a27.49624 27.49624 0 01-5.49984-.29612 26.9943 26.9943 0 01-5.33169-1.37622 18.15956 18.15956 0 01-5.10889-2.81763 18.16277 18.16277 0 015.72227-1.13818 27.0046 27.0046 0 015.49811.30259 27.49422 27.49422 0 015.33131 1.38333z"/><path fill="#e19974" d="M158.5643,464.3466H132.8428l-8.27487-43.90081a1.74489,1.74489,0,0,1,1.70271-2.07651h38.86582a1.74489,1.74489,0,0,1,1.70271,2.07651Z"/><path fill="#d6694b" d="M166.24135,423.61785l.59792-3.172a1.74489,1.74489,0,0,0-1.70271-2.07652H126.27062a1.74489,1.74489,0,0,0-1.70271,2.07652l.59793,3.172Z"/><polygon fill="#d6694b" points="134.899 451.914 129.465 446.429 134.899 440.945 140.332 446.429 134.899 451.914"/><polygon fill="#d6694b" points="145.766 451.914 140.332 446.429 145.766 440.945 151.199 446.429 145.766 451.914"/><polygon fill="#d6694b" points="156.508 451.914 151.074 446.429 156.508 440.945 161.941 446.429 156.508 451.914"/><rect width="500" height="2" x="100" y="464.347" fill="#935b50"/></svg>