<svg xmlns="http://www.w3.org/2000/svg" width="1150" height="1150" viewBox="0 0 1150 1150"><defs><linearGradient id="a" x1="150.156%" x2="51.567%" y1="-17.801%" y2="55.633%"><stop offset="0%" stop-color="#FFF"/><stop offset="100%" stop-color="#FFF" stop-opacity="0"/></linearGradient><linearGradient id="b" x1="89.852%" x2="11.42%" y1="5.85%" y2="92.74%"><stop offset="0%" stop-color="#FFF"/><stop offset="100%" stop-color="#FFF" stop-opacity="0"/></linearGradient><linearGradient id="c" x1="150.156%" x2="51.567%" y1="-17.801%" y2="55.633%"><stop offset="0%" stop-color="#FFF"/><stop offset="100%" stop-color="#FFF" stop-opacity="0"/></linearGradient><linearGradient id="d" x1="89.852%" x2="11.42%" y1="5.85%" y2="92.74%"><stop offset="0%" stop-color="#FFF"/><stop offset="100%" stop-color="#FFF" stop-opacity="0"/></linearGradient><linearGradient id="e" x1="59.351%" x2="40.643%" y1="32.216%" y2="67.795%"><stop offset="0%" stop-color="#FFF"/><stop offset="100%" stop-color="#FFF" stop-opacity="0"/></linearGradient><linearGradient id="f" x1="57.786%" x2="41.176%" y1="13.165%" y2="91.743%"><stop offset="0%" stop-color="#FFF"/><stop offset="100%" stop-color="#FFF" stop-opacity="0"/></linearGradient><linearGradient id="g" x1="57.788%" x2="41.17%" y1="13.157%" y2="91.735%"><stop offset="0%" stop-color="#FFF"/><stop offset="100%" stop-color="#FFF" stop-opacity="0"/></linearGradient><linearGradient id="h" x1="57.787%" x2="41.177%" y1="13.163%" y2="91.741%"><stop offset="0%" stop-color="#FFF"/><stop offset="100%" stop-color="#FFF" stop-opacity="0"/></linearGradient><linearGradient id="i" x1="70.303%" x2="33.091%" y1="31.278%" y2="65.592%"><stop offset="0%" stop-color="#FFF"/><stop offset="100%" stop-color="#FFF" stop-opacity="0"/></linearGradient><linearGradient id="j" x1="63.467%" x2="29.721%" y1="35.521%" y2="71.802%"><stop offset="0%" stop-color="#FFF"/><stop offset="100%" stop-color="#FFF" stop-opacity="0"/></linearGradient></defs><g fill="none" fill-rule="evenodd"><rect width="1150" height="1150" fill="#003ECB"/><g transform="translate(209 58)"><path fill="url(#a)" fill-rule="nonzero" d="M528.5,361.5 C445.8,313.2 377.4,358.4 365.3,462.5 C363.2,480.6 376.9,504.4 393.5,514.1 L663.4,671.7 C680,681.4 693.7,673.6 691.7,653.1 C679.6,534.8 611.2,409.7 528.5,361.5 Z" opacity=".5"/><path fill="url(#b)" fill-rule="nonzero" d="M620.7,226.2 C620.7,298.1 579.1,332.1 527.8,302.1 C476.6,272.2 435,189.7 435,117.8 C435,45.9 476.6,11.9 527.9,41.9 C579.2,71.8 620.7,154.4 620.7,226.2 Z" opacity=".5"/><path fill="url(#c)" fill-rule="nonzero" d="M568.5,331.5 C485.8,283.2 417.4,328.4 405.3,432.5 C403.2,450.6 416.9,474.4 433.5,484.1 L703.4,641.7 C720,651.4 733.7,643.6 731.7,623.1 C719.6,504.8 651.2,379.7 568.5,331.5 Z" opacity=".07"/><path fill="url(#d)" fill-rule="nonzero" d="M660.7,196.2 C660.7,268.1 619.1,302.1 567.8,272.1 C516.6,242.2 475,159.7 475,87.8 C475,15.9 516.6,-18.1 567.9,11.9 C619.2,41.8 660.7,124.4 660.7,196.2 Z" opacity=".07"/><polygon fill="url(#e)" fill-rule="nonzero" points="186.3 398.2 .1 290.7 .1 387.7 186.4 495.2" opacity=".2"/><path fill="#F2994A" d="M37.9,345.1 C37.9,353.1 33.2,356.8 27.3,353.5 C21.5,350.1 16.7,340.9 16.7,332.9 C16.7,324.9 21.4,321.2 27.3,324.5 C33.2,327.9 37.9,337.1 37.9,345.1 Z"/><polygon fill="#FFF" fill-rule="nonzero" points="47.5 342.1 108.4 377.2 108.4 390.8 47.5 355.7" opacity=".15"/><polygon fill="#FFF" fill-rule="nonzero" points="47.8 369.5 167.1 438.4 167.1 452 47.8 383.1" opacity=".15"/><polygon fill="url(#f)" fill-rule="nonzero" points="480.3 496 667.4 604 667.4 1006.9 480.3 899" opacity=".05"/><path fill="url(#g)" fill-rule="nonzero" d="M636.2,631 L449,523 L449,925.9 L636.1,1033.9 L636.2,631 Z M510,584 L572.5,620 L572.5,636 L510,600.5 L510,584 Z" opacity=".3"/><polygon fill="#FFF" fill-rule="nonzero" points="467.1 778.3 617.4 865 617.4 878.6 467.1 791.9" opacity=".15"/><polygon fill="#FFF" fill-rule="nonzero" points="477.7 810.9 607 885.5 607 899.1 477.7 824.5" opacity=".15"/><path fill="#F2994A" d="M584.4,744.4 C584.4,712.5 565.7,675.8 542.7,662.5 C519.7,649.2 501,664.3 501,696.2 C501,728.1 519.7,764.8 542.7,778.1 C565.7,791.4 584.4,776.3 584.4,744.4 Z"/><polygon fill="url(#h)" fill-rule="nonzero" points="247.3 171.7 434.4 279.7 434.4 682.6 247.3 574.6" opacity=".05"/><path fill="url(#g)" fill-rule="nonzero" d="M403.2,307 L216,199 L216,601.9 L403.1,709.9 L403.2,307 Z M277,260 L339.5,296 L339.5,312 L277,276.5 L277,260 Z" opacity=".3"/><polygon fill="#FFF" fill-rule="nonzero" points="234.1 453.9 384.4 540.6 384.4 554.2 234.1 467.5" opacity=".15"/><polygon fill="#FFF" fill-rule="nonzero" points="244.6 486.6 373.8 561.2 373.8 574.8 244.5 500.2" opacity=".15"/><path fill="#F2C94C" d="M351.4,420.1 C351.4,388.2 332.7,351.5 309.7,338.2 C286.7,324.9 268,340 268,371.9 C268,403.8 286.7,440.5 309.7,453.8 C332.7,467.1 351.4,452 351.4,420.1 Z"/><polygon fill="url(#i)" fill-rule="nonzero" points="351.4 644.8 53.8 473 53.9 628.1 325.2 784.7 351.5 823.6" opacity=".3"/><polygon fill="#F2994A" points="22.1 533.5 22.1 491.4 134.4 556.2 134.4 598.3"/><polygon fill="#FFF" fill-rule="nonzero" points="274.9 638.4 209.7 600.8 209.7 614.4 274.9 652" opacity=".15"/><polygon fill="#FFF" fill-rule="nonzero" points="274.9 665.7 149.2 593.2 149.2 606.8 274.9 679.3" opacity=".15"/><polygon fill="#FFF" fill-rule="nonzero" points="274.9 692.9 122.7 605 122.7 618.6 275 706.5" opacity=".15"/><path fill="#F2994A" d="M291,661.9 C291,674.7 298.6,689.4 307.9,694.8 C317.2,700.2 324.8,694.2 324.8,681.4 C324.8,668.6 317.2,653.9 307.9,648.5 C298.5,643.1 290.9,649.1 291,661.9 Z"/><path fill="url(#j)" fill-rule="nonzero" d="M118.1,179.4 C124.1,182.8 128.9,191.2 128.9,198.1 L128.9,228.6 L149.1,240.2 C155.1,243.6 159.9,252 159.9,258.9 C159.9,265.8 155.1,268.6 149.1,265.2 L128.9,253.6 L128.9,284.1 C128.9,291 124.1,293.8 118.1,290.4 C112.1,287 107.3,278.6 107.3,271.7 L107.3,241.2 L87.1,229.6 C81.1,226.2 76.3,217.8 76.3,210.9 C76.3,204 81.1,201.2 87.1,204.6 L107.3,216.2 L107.3,185.7 C107.3,178.8 112.1,176 118.1,179.4 Z" opacity=".2"/></g></g></svg>